<svg width="136" height="34" viewBox="0 0 136 34" fill="none" xmlns="http://www.w3.org/2000/svg">
<path d="M50.0784 7.21582C51.3208 7.21582 52.339 7.3585 53.1537 7.64385C53.9683 7.92923 54.6403 8.31653 55.1291 8.84649C55.6179 9.37652 55.9641 10.0084 56.1881 10.7626C56.3917 11.5167 56.4936 12.3525 56.4936 13.2494V21.9329C55.9029 22.0551 55.068 22.2182 54.009 22.4017C52.95 22.5852 51.6466 22.6667 50.1396 22.6667C49.1824 22.6667 48.3271 22.5852 47.5531 22.422C46.7793 22.259 46.1072 21.9736 45.5573 21.5863C44.9871 21.1991 44.5594 20.7098 44.2744 20.0779C43.9689 19.4664 43.8263 18.7123 43.8263 17.8153C43.8263 16.9592 43.9892 16.2254 44.3354 15.6343C44.6817 15.0431 45.1501 14.554 45.7203 14.2074C46.2906 13.8609 46.9626 13.5959 47.7161 13.4329C48.4696 13.2697 49.2435 13.1882 50.0377 13.1882C50.5876 13.1882 51.056 13.2086 51.4837 13.2494C51.9113 13.2901 52.2372 13.3513 52.502 13.4329V13.0456C52.502 12.3322 52.278 11.7614 51.8503 11.3333C51.4226 10.9053 50.6691 10.681 49.6101 10.681C48.8973 10.681 48.2048 10.7422 47.5124 10.8441C46.82 10.9461 46.2294 11.0887 45.7203 11.2722L45.1908 7.90883C45.4352 7.8273 45.7406 7.74578 46.1073 7.66425C46.4738 7.58272 46.8607 7.5012 47.2885 7.44007C47.7161 7.37889 48.1641 7.31774 48.6529 7.27697C49.1213 7.25658 49.5897 7.21582 50.0784 7.21582ZM50.4247 19.4461C50.832 19.4461 51.2189 19.4461 51.6059 19.4257C51.9725 19.4053 52.278 19.3849 52.502 19.3441V16.1847C52.339 16.1439 52.0743 16.1031 51.7484 16.0623C51.4022 16.0216 51.0967 16.0012 50.832 16.0012C50.4451 16.0012 50.0784 16.0216 49.7322 16.0623C49.386 16.1031 49.0805 16.2051 48.8158 16.3273C48.5511 16.4496 48.3474 16.6331 48.2048 16.8573C48.0623 17.0815 47.9809 17.3669 47.9809 17.6931C47.9809 18.3453 48.2048 18.7938 48.6326 19.0588C49.0602 19.3237 49.6508 19.4461 50.4247 19.4461Z" fill="#092F47" fill-opacity="0.6"/>
<path d="M64.0899 3.36316C64.0899 4.13773 63.8455 4.72886 63.3567 5.17731C62.8679 5.62574 62.2774 5.82958 61.6053 5.82958C60.9332 5.82958 60.3426 5.60536 59.8539 5.17731C59.3651 4.72886 59.1207 4.13773 59.1207 3.36316C59.1207 2.58858 59.3651 1.99745 59.8539 1.549C60.3426 1.10057 60.9332 0.896729 61.6053 0.896729C62.2774 0.896729 62.8679 1.12095 63.3567 1.549C63.8455 1.97706 64.0899 2.58858 64.0899 3.36316ZM63.7029 22.3607H59.528V7.62335H63.7029V22.3607Z" fill="#092F47" fill-opacity="0.6"/>
<path d="M76.1667 11.3129C75.8001 11.2109 75.3521 11.1294 74.8429 11.0275C74.3336 10.9256 73.8042 10.8644 73.2135 10.8644C72.9488 10.8644 72.6433 10.8848 72.2768 10.9256C71.9102 10.9663 71.6454 11.0275 71.4418 11.0886V22.3608H67.2669V8.39795C68.0204 8.13297 68.896 7.88839 69.9143 7.66414C70.9326 7.43996 72.0731 7.31763 73.3154 7.31763C73.5394 7.31763 73.8042 7.33801 74.1304 7.3584C74.4556 7.37878 74.7616 7.41956 75.0875 7.48069C75.4127 7.52149 75.7187 7.58261 76.0447 7.64374C76.3699 7.70494 76.6353 7.78646 76.8592 7.88839L76.1667 11.3129Z" fill="#092F47" fill-opacity="0.6"/>
<path d="M92.7646 15.0024C92.7646 16.1847 92.6012 17.2446 92.2553 18.2027C91.9087 19.1607 91.4001 19.9761 90.7482 20.6487C90.0963 21.3214 89.2818 21.8309 88.3453 22.1979C87.3881 22.5648 86.3083 22.7483 85.0865 22.7483C84.5772 22.7483 84.048 22.7279 83.4981 22.6871C82.9482 22.6463 82.3983 22.5851 81.869 22.5036C81.3391 22.4221 80.8298 22.3406 80.3413 22.2386C79.8527 22.1367 79.4247 22.0348 79.0581 21.9125V3.64872L83.2335 0.366943V7.9701C83.7014 7.76624 84.1907 7.60312 84.6999 7.50127C85.2084 7.37893 85.7384 7.33817 86.329 7.33817C87.3674 7.33817 88.3039 7.52159 89.0985 7.8885C89.893 8.2554 90.5649 8.76503 91.1148 9.43771C91.6647 10.1103 92.072 10.9257 92.3573 11.8633C92.6219 12.7806 92.7646 13.8406 92.7646 15.0024ZM88.5079 14.8802C88.5079 12.1895 87.5101 10.8441 85.5344 10.8441C85.1072 10.8441 84.6792 10.9053 84.2513 11.0073C83.824 11.1295 83.4981 11.2518 83.2335 11.4353V19.0384C83.4367 19.0792 83.7014 19.0996 84.0273 19.1404C84.3533 19.1607 84.6999 19.1811 85.0665 19.1811C86.2063 19.1811 87.0622 18.7938 87.6527 17.9988C88.2027 17.2039 88.5079 16.1643 88.5079 14.8802Z" fill="#092F47" fill-opacity="0.6"/>
<path d="M100.585 7.21582C101.827 7.21582 102.845 7.3585 103.66 7.64385C104.475 7.92923 105.146 8.31653 105.635 8.84649C106.124 9.37652 106.47 10.0084 106.694 10.7626C106.898 11.5167 106.999 12.3525 106.999 13.2494V21.9329C106.409 22.0551 105.574 22.2182 104.515 22.4017C103.456 22.5852 102.153 22.6667 100.646 22.6667C99.6887 22.6667 98.8336 22.5852 98.059 22.422C97.2851 22.259 96.6132 21.9736 96.0633 21.5863C95.4934 21.1991 95.0655 20.7098 94.7802 20.0779C94.4749 19.4664 94.3323 18.7123 94.3323 17.8153C94.3323 16.9592 94.4956 16.2254 94.8415 15.6343C95.1874 15.0431 95.656 14.554 96.2267 14.2074C96.7965 13.8609 97.4684 13.5959 98.2223 13.4329C98.9755 13.2697 99.7494 13.1882 100.544 13.1882C101.094 13.1882 101.562 13.2086 101.99 13.2494C102.418 13.2901 102.744 13.3513 103.008 13.4329V13.0456C103.008 12.3322 102.784 11.7614 102.356 11.3333C101.929 10.9053 101.175 10.681 100.116 10.681C99.4034 10.681 98.7109 10.7422 98.0183 10.8441C97.3265 10.9461 96.7359 11.0887 96.2267 11.2722L95.6967 7.90883C95.9413 7.8273 96.2466 7.74578 96.6132 7.66425C96.9798 7.58272 97.3671 7.5012 97.7943 7.44007C98.2223 7.37889 98.6702 7.31774 99.1588 7.27697C99.6274 7.25658 100.096 7.21582 100.585 7.21582ZM100.93 19.4461C101.338 19.4461 101.725 19.4461 102.112 19.4257C102.479 19.4053 102.784 19.3849 103.008 19.3441V16.1847C102.845 16.1439 102.58 16.1031 102.254 16.0623C101.908 16.0216 101.603 16.0012 101.338 16.0012C100.951 16.0012 100.585 16.0216 100.239 16.0623C99.892 16.1031 99.5867 16.2051 99.3221 16.3273C99.0575 16.4496 98.8535 16.6331 98.7109 16.8573C98.5682 17.0815 98.4869 17.3669 98.4869 17.6931C98.4869 18.3453 98.7109 18.7938 99.1388 19.0588C99.5461 19.3237 100.157 19.4461 100.93 19.4461Z" fill="#092F47" fill-opacity="0.6"/>
<path d="M114.413 19.3644C115.187 19.3644 115.716 19.2828 116.042 19.1402C116.368 18.9975 116.511 18.6917 116.511 18.2637C116.511 17.9172 116.307 17.6318 115.899 17.3872C115.492 17.1425 114.861 16.8572 114.026 16.5311C113.374 16.2864 112.783 16.0418 112.254 15.7769C111.725 15.5119 111.277 15.2061 110.89 14.8392C110.523 14.4723 110.218 14.0443 110.014 13.5346C109.81 13.0251 109.708 12.4135 109.708 11.7205C109.708 10.3344 110.218 9.2337 111.256 8.43869C112.275 7.64376 113.7 7.23608 115.492 7.23608C116.388 7.23608 117.244 7.31762 118.078 7.48071C118.893 7.64376 119.545 7.80681 120.033 7.99026L119.3 11.2517C118.812 11.0886 118.282 10.9255 117.712 10.8032C117.142 10.6809 116.511 10.5994 115.797 10.5994C114.494 10.5994 113.842 10.9663 113.842 11.7001C113.842 11.8632 113.863 12.0263 113.924 12.1485C113.985 12.2709 114.087 12.4135 114.27 12.5358C114.433 12.6582 114.657 12.7804 114.963 12.9231C115.247 13.0658 115.614 13.2289 116.062 13.392C116.978 13.7385 117.732 14.0646 118.323 14.3908C118.914 14.7169 119.382 15.0838 119.728 15.4507C120.074 15.838 120.319 16.2661 120.461 16.7145C120.604 17.1833 120.665 17.7133 120.665 18.3452C120.665 19.7924 120.115 20.8932 119.035 21.6473C117.936 22.4015 116.388 22.7684 114.392 22.7684C113.089 22.7684 111.989 22.6462 111.134 22.4219C110.258 22.1977 109.668 22.0142 109.321 21.8512L110.014 18.4675C110.727 18.7529 111.459 18.9771 112.193 19.1198C112.947 19.2828 113.68 19.3644 114.413 19.3644Z" fill="#092F47" fill-opacity="0.6"/>
<path d="M122.131 15.1043C122.131 13.7998 122.335 12.6583 122.742 11.6595C123.149 10.681 123.679 9.86568 124.331 9.21339C124.983 8.56111 125.736 8.07195 126.591 7.72538C127.447 7.37889 128.322 7.21582 129.218 7.21582C131.316 7.21582 132.966 7.8477 134.188 9.13187C135.409 10.416 136 12.2914 136 14.7782C136 15.0227 136 15.2878 135.979 15.5731C135.959 15.8585 135.939 16.1235 135.919 16.3477H126.449C126.55 17.2038 126.938 17.8968 127.65 18.3861C128.363 18.8957 129.32 19.1403 130.502 19.1403C131.275 19.1403 132.029 19.0792 132.762 18.9364C133.495 18.7938 134.106 18.6307 134.574 18.4269L135.145 21.8105C134.921 21.9329 134.615 22.0348 134.248 22.157C133.882 22.2794 133.454 22.3609 133.007 22.4424C132.559 22.5239 132.049 22.6055 131.54 22.6463C131.011 22.7074 130.502 22.7278 129.972 22.7278C128.648 22.7278 127.487 22.5239 126.51 22.1366C125.532 21.7494 124.718 21.1991 124.066 20.5264C123.414 19.8537 122.945 19.0384 122.64 18.1007C122.274 17.2038 122.131 16.1847 122.131 15.1043ZM131.927 13.5144C131.907 13.1679 131.845 12.8213 131.743 12.4748C131.642 12.1283 131.479 11.8429 131.275 11.5779C131.052 11.313 130.786 11.1091 130.461 10.9257C130.135 10.7626 129.728 10.681 129.238 10.681C128.771 10.681 128.363 10.7626 128.037 10.9257C127.691 11.0887 127.426 11.2926 127.202 11.5575C126.978 11.8225 126.816 12.1283 126.693 12.4748C126.571 12.8213 126.49 13.1679 126.428 13.5348H131.927V13.5144Z" fill="#092F47" fill-opacity="0.6"/>
<path d="M13.0746 34L0 22.9724V3.64868L13.1764 14.7578L31.9125 0L31.9329 19.1403L13.0746 34ZM13.1764 27.3141L26.7397 16.6331V10.7014L13.0746 21.4641L5.19317 14.819V20.5671L13.1764 27.3141Z" fill="#FF6448"/>
</svg>
