<svg width="119" height="33" viewBox="0 0 119 33" fill="none" xmlns="http://www.w3.org/2000/svg">
<path d="M40.5653 22.2624C37.7511 22.2624 35.4698 19.9005 35.4698 16.9864C35.4698 14.0731 37.7511 11.7112 40.5653 11.7112C43.3795 11.7112 45.6605 14.0731 45.6605 16.9864C45.6605 19.9005 43.3795 22.2624 40.5653 22.2624ZM45.6766 22.9314C45.7469 23.7409 46.3867 24.7716 47.4951 24.7716H48.1436C48.3949 24.7716 48.6011 24.5629 48.6011 24.3084V9.87137H48.5982C48.5853 9.62816 48.3866 9.43315 48.1436 9.43315H46.1341C45.8911 9.43315 45.6925 9.62816 45.6791 9.87137H45.6766V11.0444C44.4452 9.50828 42.504 8.87061 40.5575 8.87061C36.1327 8.87061 32.5456 12.5041 32.5456 16.9864C32.5456 21.4692 36.1327 25.1028 40.5575 25.1028V25.1032C42.504 25.1032 44.6255 24.338 45.6764 22.9295L45.6766 22.9314ZM73.479 22.2624C70.6651 22.2624 68.3835 19.9005 68.3835 16.9864C68.3835 14.0731 70.6651 11.7112 73.479 11.7112C76.2933 11.7112 78.5744 14.0731 78.5744 16.9864C78.5744 19.9005 76.2933 22.2624 73.479 22.2624ZM78.5905 22.9314C78.6608 23.7409 79.3005 24.7716 80.409 24.7716H81.0578C81.3091 24.7716 81.515 24.5629 81.515 24.3084V9.87137H81.5123C81.4991 9.62816 81.3005 9.43315 81.0578 9.43315H79.048C78.805 9.43315 78.6066 9.62816 78.5929 9.87137H78.5905V11.0444C77.359 9.50828 75.4178 8.87061 73.4712 8.87061C69.0464 8.87061 65.4594 12.5041 65.4594 16.9864C65.4594 21.4692 69.0464 25.1028 73.4712 25.1028V25.1032C75.4178 25.1032 77.5394 24.338 78.5902 22.9295L78.5905 22.9314Z" fill="#092F47" fill-opacity="0.6"/>
<path d="M109.619 22.1279C106.855 22.1279 104.614 19.8126 104.614 16.9562C104.614 14.1004 106.855 11.7852 109.619 11.7852C112.383 11.7852 114.623 14.1004 114.623 16.9562C114.623 19.8126 112.383 22.1279 109.619 22.1279ZM114.639 22.7837C114.708 23.5772 115.336 24.5875 116.425 24.5875H117.062C117.309 24.5875 117.512 24.383 117.512 24.1334V9.98172H117.509C117.496 9.74332 117.301 9.55216 117.062 9.55216H115.088C114.85 9.55216 114.655 9.74332 114.642 9.98172H114.639V11.1316C113.43 9.62581 111.523 9.00073 109.611 9.00073C105.265 9.00073 101.743 12.5625 101.743 16.9562C101.743 21.3504 105.265 24.9121 109.611 24.9121V24.9126C111.523 24.9126 113.607 24.1625 114.639 22.7818L114.639 22.7837Z" fill="#092F47" fill-opacity="0.6"/>
<path d="M99.1756 22.9535L99.1747 15.7092H99.1749C99.1749 11.6255 96.607 8.87061 92.5121 8.87061C90.5574 8.87061 88.7688 9.99494 88.3892 10.9788C88.2669 10.2171 87.8636 9.41636 86.6137 9.41636H85.9766C85.7303 9.41636 85.5289 9.61889 85.5289 9.86576V22.5072V22.5091V23.8422V23.8669H85.5315C85.5442 24.1023 85.7389 24.2916 85.9768 24.2916H87.3094H87.9444C87.9745 24.2916 88.0041 24.288 88.0325 24.2823C88.0457 24.2799 88.0578 24.2748 88.0705 24.2712C88.0851 24.2667 88.1004 24.2631 88.1142 24.2573C88.1317 24.2501 88.1477 24.2403 88.1639 24.2312C88.1718 24.2264 88.1804 24.2228 88.188 24.2178C88.2076 24.2051 88.2256 24.1897 88.243 24.1742C88.2459 24.1713 88.2494 24.1694 88.2521 24.1667C88.2717 24.1478 88.2896 24.127 88.3054 24.1051L88.3056 24.1047C88.3548 24.0368 88.3847 23.9551 88.3897 23.8669H88.3921V23.8422V22.9537V22.7203V15.5967C88.3921 13.4037 90.1644 11.6255 92.3508 11.6255C94.537 11.6255 96.3093 13.4037 96.3093 15.5967L96.3113 22.5094L96.3117 22.5072C96.3117 22.5132 96.3127 22.5194 96.3127 22.5261V23.8422V23.8669H96.3151C96.3282 24.1023 96.5227 24.2916 96.7606 24.2916H98.0925H98.7282C98.7585 24.2916 98.7879 24.288 98.8163 24.2823C98.828 24.2801 98.8388 24.2756 98.8503 24.2722C98.8663 24.2676 98.8827 24.2636 98.8983 24.2573C98.9143 24.2506 98.9291 24.2415 98.9441 24.2327C98.9535 24.2276 98.9633 24.2238 98.9721 24.2178C98.9905 24.2058 99.007 24.1914 99.0232 24.1768C99.0275 24.1732 99.0321 24.1703 99.0361 24.1663C99.0548 24.1483 99.0712 24.1289 99.0865 24.1083C99.0877 24.1068 99.0889 24.1056 99.0901 24.1042C99.1386 24.0368 99.1682 23.9558 99.1732 23.8681C99.1732 23.8674 99.1735 23.8669 99.1735 23.8669H99.1761V23.8422V22.9537L99.1756 22.9535ZM52.8718 20.8636C54.2449 21.8052 55.744 22.2622 57.1846 22.2622C58.5567 22.2622 59.9751 21.5583 59.9751 20.3329C59.9751 18.697 56.8839 18.4424 54.9418 17.7892C52.9992 17.136 51.326 15.7858 51.326 13.5987C51.326 10.2527 54.3389 8.87061 57.1511 8.87061C58.9329 8.87061 60.7711 9.45216 61.9629 10.2848C62.3735 10.5925 62.1235 10.9462 62.1235 10.9462L60.9856 12.554C60.858 12.7351 60.6342 12.8918 60.3133 12.6956C59.9923 12.4996 58.8667 11.7112 57.1511 11.7112C55.4353 11.7112 54.4018 12.4954 54.4018 13.4672C54.4018 14.6325 55.745 14.9991 57.3184 15.3962C60.06 16.1276 63.0511 17.0067 63.0511 20.3329C63.0511 23.2812 60.2643 25.1032 57.1846 25.1032C54.8504 25.1032 52.8633 24.4448 51.1967 23.2345C50.8493 22.8907 51.0918 22.5714 51.0918 22.5714L52.2239 20.9716C52.4542 20.6725 52.7447 20.7768 52.8718 20.8636Z" fill="#092F47" fill-opacity="0.6"/>
<path d="M20.5039 10.4935C20.5039 13.6314 17.988 16.1753 14.8844 16.1753C11.7809 16.1753 9.265 13.6314 9.265 10.4935C9.265 7.35645 11.7809 4.8125 14.8844 4.8125C17.988 4.8125 20.5039 7.35645 20.5039 10.4935Z" fill="#092F47" fill-opacity="0.6"/>
<path d="M7.63749 17.0317C4.54605 17.0317 2.04003 19.5649 2.04003 22.6904C2.04003 25.816 4.54605 28.3499 7.63749 28.3499C10.7289 28.3499 13.2352 25.816 13.2352 22.6904C13.2352 19.5649 10.7289 17.0317 7.63749 17.0317Z" fill="#092F47" fill-opacity="0.6"/>
<path d="M22.0215 17.0312C18.9975 17.0312 16.5458 19.5649 16.5458 22.6907C16.5458 25.816 18.9975 28.3499 22.0215 28.3499C25.0458 28.3499 27.4976 25.816 27.4976 22.6907C27.4976 19.5649 25.0458 17.0312 22.0215 17.0312Z" fill="#092F47" fill-opacity="0.6"/>
</svg>
