<svg width="120" height="33" viewBox="0 0 120 33" fill="none" xmlns="http://www.w3.org/2000/svg">
<path d="M4.57393 15.2605C4.48532 15.1442 4.34256 15.0828 4.19749 15.0986C4.05241 15.1144 3.92613 15.2051 3.86449 15.3377L0.269657 22.5439C0.203072 22.6774 0.21019 22.836 0.288469 22.963C0.366747 23.09 0.505026 23.1673 0.653927 23.1673H5.65954C5.82334 23.1711 5.97398 23.0777 6.04381 22.9291C7.12359 20.6921 6.46921 17.2907 4.57393 15.2605Z" fill="#092F47" fill-opacity="0.6"/>
<path d="M7.21057 8.70603C5.3883 11.5172 5.17798 15.083 6.65709 18.09L9.07035 22.929C9.14312 23.075 9.29188 23.1672 9.45462 23.1672H14.4593C14.6082 23.1672 14.7465 23.0899 14.8248 22.9629C14.9031 22.8359 14.9102 22.6773 14.8436 22.5438C14.8436 22.5438 8.11057 9.04106 7.94136 8.70333C7.87309 8.56305 7.7308 8.47428 7.57512 8.47486C7.41944 8.47544 7.2778 8.56525 7.21057 8.70603Z" fill="#092F47" fill-opacity="0.6"/>
<path d="M65.9132 14.4838C65.9132 16.2683 66.7389 17.685 69.9683 18.3104C71.895 18.716 72.2986 19.0278 72.2986 19.6717C72.2986 20.2971 71.8941 20.702 70.5371 20.702C68.8969 20.6725 67.2895 20.2364 65.8582 19.4327V22.3391C66.8308 22.8174 68.115 23.3509 70.5004 23.3509C73.8766 23.3509 75.2162 21.8414 75.2162 19.598L65.9132 14.4838ZM75.2162 19.598C75.2162 17.4824 74.0968 16.4888 70.9409 15.8084C69.1977 15.422 68.7757 15.0358 68.7757 14.4838C68.7757 13.7854 69.3995 13.4905 70.5555 13.4905C71.9501 13.4905 73.3263 13.9136 74.629 14.5023V11.7243C73.3798 11.1543 72.0194 10.8715 70.6472 10.8966C67.5278 10.8966 65.9132 12.2578 65.9132 14.4838" fill="#092F47" fill-opacity="0.6"/>
<path d="M109.288 11.0806V23.1672H111.857V13.9505L112.94 16.3971L116.573 23.1672H119.802V11.0806H117.233V18.8808L116.261 16.6179L113.343 11.0806H109.288Z" fill="#092F47" fill-opacity="0.6"/>
<path d="M90.1422 11.0806H92.9497V23.1672H90.1422V11.0806Z" fill="#092F47" fill-opacity="0.6"/>
<path d="M86.9029 19.598C86.9029 17.4824 85.7836 16.4888 82.6276 15.8084C80.8845 15.422 80.4625 15.0358 80.4625 14.4838C80.4625 13.7854 81.0863 13.4905 82.2422 13.4905C83.6369 13.4905 85.013 13.9136 86.3157 14.5023V11.7243C85.0666 11.1543 83.7061 10.8715 82.3339 10.8966C79.2146 10.8966 77.6 12.2578 77.6 14.4838C77.6 16.2683 78.4256 17.685 81.6551 18.3104C83.5818 18.716 83.9854 19.0278 83.9854 19.6717C83.9854 20.2971 83.5809 20.702 82.2238 20.702C80.5836 20.6725 78.9762 20.2364 77.5449 19.4327V22.3391C78.5175 22.8174 79.8018 23.3509 82.1872 23.3509C85.5634 23.3509 86.9029 21.8414 86.9029 19.598Z" fill="#092F47" fill-opacity="0.6"/>
<path d="M44.1045 11.0806V23.1672H49.8748L50.7834 20.5548H46.9301V11.0806H44.1045Z" fill="#092F47" fill-opacity="0.6"/>
<path d="M32.704 11.0806V13.6927H35.8234V23.1672H38.649V13.6927H41.9885V11.0806H32.704Z" fill="#092F47" fill-opacity="0.6"/>
<path d="M28.6067 11.0806H24.9036L20.6998 23.1672H23.9101L24.5061 21.1316C25.9738 21.5637 27.5345 21.5637 29.0022 21.1316L29.5982 23.1672H32.8092L28.6067 11.0806ZM26.755 18.952C26.2321 18.952 25.7119 18.877 25.2101 18.7292L26.755 13.4546L28.3 18.731C27.7982 18.8781 27.2779 18.9526 26.755 18.952Z" fill="#092F47" fill-opacity="0.6"/>
<path d="M59.8227 11.0806H56.1198L51.916 23.1672H55.127L55.7229 21.1316C57.1907 21.5637 58.7514 21.5637 60.2191 21.1316L60.8151 23.1672H64.0261L59.8227 11.0806ZM57.9712 18.952C57.4483 18.952 56.928 18.877 56.4263 18.7292L57.9712 13.4546L59.5162 18.731C59.0143 18.8781 58.4941 18.9526 57.9712 18.952Z" fill="#092F47" fill-opacity="0.6"/>
<path d="M103.066 11.0806H99.3631L95.1593 23.1672H98.3703L98.9663 21.1316C100.434 21.5637 101.995 21.5637 103.462 21.1316L104.058 23.1672H107.27L103.066 11.0806ZM101.213 18.952C100.691 18.952 100.17 18.877 99.6685 18.7292L101.213 13.4546L102.758 18.731C102.257 18.8781 101.736 18.9526 101.213 18.952Z" fill="#092F47" fill-opacity="0.6"/>
</svg>
