<svg width="16" height="16" viewBox="0 0 16 16" fill="none" xmlns="http://www.w3.org/2000/svg">
<path d="M15.4251 6.25667C15.3954 6.13199 15.2704 6.05498 15.1453 6.08463C15.0206 6.11445 14.9436 6.23961 14.9734 6.36429C15.0955 6.8764 15.1575 7.41721 15.1575 7.97189C15.1575 11.9339 11.862 15.1572 7.81099 15.1572C3.76001 15.1572 0.464441 11.9339 0.464441 7.97189C0.464441 4.00956 3.76001 0.786058 7.81099 0.786058C9.42433 0.786058 10.9655 1.29658 12.2676 2.26245C12.3703 2.33882 12.516 2.31729 12.5924 2.2143C12.6687 2.1113 12.6472 1.96589 12.5442 1.88952C11.1616 0.863704 9.52478 0.321777 7.81099 0.321777C3.50395 0.321777 0 3.7535 0 7.97189C0 12.19 3.50395 15.6217 7.81099 15.6217C12.118 15.6217 15.622 12.19 15.622 7.97189C15.622 7.38118 15.5556 6.80417 15.4251 6.25667Z" fill="#FF4B00"/>
<path d="M7.6498 11.429C7.58826 11.429 7.52927 11.4046 7.48558 11.3611L3.13088 7.00704C3.04016 6.91632 3.04016 6.76932 3.13088 6.6786C3.22144 6.58788 3.36844 6.58788 3.45916 6.6786L7.64008 10.8589L15.5383 2.01235C15.6237 1.91669 15.7704 1.9084 15.8661 1.99386C15.9617 2.07932 15.97 2.226 15.8847 2.32166L7.82295 11.3515C7.78038 11.3992 7.72012 11.4273 7.65634 11.429C7.65411 11.429 7.65204 11.429 7.6498 11.429Z" fill="#FF4B00"/>
</svg>
