<svg width="25" height="25" viewBox="0 0 25 25" fill="none" xmlns="http://www.w3.org/2000/svg">
<path d="M3.99233 6.14733L3.99772 6.15125C4.00704 6.13801 4.01685 6.12525 4.02666 6.1125C4.04432 6.08798 4.06247 6.06394 4.08111 6.0399C5.56305 4.07501 7.73675 2.74722 10.1615 2.32576C10.7088 2.22965 11.2633 2.18026 11.8189 2.17811C13.3094 2.16582 14.7825 2.49891 16.1227 3.15128C16.3326 3.2538 16.538 3.36368 16.7387 3.48091C17.5613 3.96129 18.3056 4.56472 18.9456 5.27024L18.8715 5.34436L18.2265 5.98938L17.8808 6.33508C17.8599 6.35594 17.8457 6.38253 17.8399 6.41147C17.8342 6.44041 17.8371 6.4704 17.8484 6.49767C17.8597 6.52493 17.8788 6.54823 17.9034 6.56462C17.9279 6.58101 17.9567 6.58976 17.9863 6.58977H21.7041C21.7282 6.58977 21.752 6.5839 21.7734 6.57267C21.7947 6.56144 21.813 6.54519 21.8267 6.52531L21.8533 6.52503L21.8525 6.44878C21.8526 6.44601 21.8533 6.44339 21.8533 6.44058V2.72273C21.8533 2.69323 21.8445 2.66438 21.8281 2.63985C21.8117 2.61531 21.7884 2.59619 21.7612 2.5849C21.7339 2.57361 21.7039 2.57065 21.675 2.57641C21.646 2.58217 21.6195 2.59637 21.5986 2.61724L21.3044 2.91143L20.6108 3.60501L20.6 3.6158L20.4861 3.72972C20.4632 3.70753 20.4406 3.68494 20.4176 3.66289C18.9468 2.27136 17.1342 1.29348 15.1636 0.828395C13.193 0.363309 11.1344 0.427555 9.19665 1.01462C8.36846 1.26663 7.57241 1.61412 6.82453 2.05009C5.70544 2.70217 4.7115 3.54845 3.88932 4.54924C3.64774 4.84294 3.42242 5.14964 3.21437 5.46797C3.19181 5.5028 3.16926 5.53762 3.14668 5.57294L3.72254 5.96437L3.99233 6.14733Z" fill="white"/>
<path d="M21.0077 18.8527L21.0023 18.8487C20.993 18.862 20.9831 18.8747 20.9733 18.8875C20.9557 18.912 20.9375 18.936 20.9189 18.9601C19.437 20.925 17.2632 22.2528 14.8385 22.6742C14.2912 22.7703 13.7367 22.8197 13.1811 22.8219C11.6906 22.8342 10.2175 22.5011 8.87734 21.8487C8.6674 21.7462 8.46204 21.6363 8.26125 21.5191C7.43867 21.0387 6.69443 20.4353 6.05439 19.7297L6.12851 19.6556L6.77353 19.0106L7.11923 18.6649C7.14009 18.644 7.1543 18.6175 7.16005 18.5885C7.16581 18.5596 7.16286 18.5296 7.15156 18.5023C7.14027 18.4751 7.12115 18.4518 7.09662 18.4354C7.07208 18.419 7.04324 18.4102 7.01373 18.4102H3.2959C3.27177 18.4102 3.248 18.4161 3.22664 18.4273C3.20527 18.4385 3.18696 18.4548 3.17328 18.4747L3.14671 18.475L3.14754 18.5512C3.14739 18.554 3.14671 18.5566 3.14671 18.5594V22.2772C3.14671 22.3067 3.15546 22.3356 3.17186 22.3601C3.18825 22.3847 3.21155 22.4038 3.23881 22.4151C3.26607 22.4264 3.29607 22.4293 3.32501 22.4236C3.35395 22.4178 3.38054 22.4036 3.4014 22.3827L3.69559 22.0885L4.38917 21.395L4.39996 21.3842L4.51389 21.2703C4.53682 21.2924 4.55936 21.315 4.58243 21.3371C6.05323 22.7286 7.86582 23.7065 9.83643 24.1716C11.807 24.6367 13.8656 24.5724 15.8034 23.9854C16.6315 23.7334 17.4276 23.3859 18.1755 22.9499C19.2946 22.2978 20.2885 21.4515 21.1107 20.4507C21.3523 20.157 21.5776 19.8503 21.7856 19.532C21.8082 19.4972 21.8307 19.4624 21.8533 19.427L21.2775 19.0356L21.0077 18.8527Z" fill="white"/>
<path d="M24.3401 14.8599C24.3204 14.745 24.2739 14.6363 24.2044 14.5427C24.1348 14.449 24.0442 14.3731 23.9399 14.321C23.2441 13.974 21.7172 13.4616 21.7172 13.4616V12.8869C21.7172 12.8869 21.7419 12.886 21.7729 12.8826C22.2943 12.8244 22.8096 12.7196 23.3124 12.5696C23.3602 12.5556 23.4047 12.5321 23.4432 12.5005C23.4817 12.4689 23.5135 12.4299 23.5366 12.3857C23.5597 12.3416 23.5737 12.2932 23.5776 12.2436C23.5816 12.1939 23.5755 12.1439 23.5598 12.0967L22.7704 9.74355C22.7381 9.64824 22.6992 9.55533 22.6538 9.46552C22.524 9.1162 22.2908 8.81475 21.9853 8.60134C21.6798 8.38794 21.3165 8.27272 20.9438 8.27106C20.9158 8.27053 20.888 8.27027 20.8604 8.2708C20.8329 8.27027 20.8051 8.27053 20.777 8.27106C20.403 8.27267 20.0384 8.38874 19.7322 8.60366C19.4261 8.81858 19.193 9.12207 19.0644 9.47333C19.0199 9.56051 18.9818 9.65083 18.9504 9.74355L18.161 12.0967C18.1453 12.1439 18.1392 12.1939 18.1432 12.2435C18.1472 12.2932 18.1612 12.3415 18.1843 12.3857C18.2074 12.4298 18.2391 12.4689 18.2776 12.5005C18.3162 12.5321 18.3606 12.5556 18.4085 12.5696C18.9116 12.7197 19.4272 12.8245 19.949 12.8827C19.9784 12.8859 20.0037 12.887 20.0037 12.887V13.4616C20.0037 13.4616 18.4768 13.974 17.781 14.321C17.6767 14.3731 17.5861 14.449 17.5165 14.5427C17.447 14.6363 17.4005 14.745 17.3808 14.8599C17.2979 15.4799 17.2511 16.1041 17.2405 16.7295H24.4804C24.4698 16.1041 24.423 15.4799 24.3401 14.8599Z" fill="white"/>
<path d="M7.61919 14.8599C7.59949 14.745 7.55299 14.6363 7.48347 14.5427C7.41395 14.449 7.32335 14.3731 7.21902 14.321C6.5232 13.974 4.9963 13.4616 4.9963 13.4616V12.8869C4.9963 12.8869 5.02104 12.886 5.05198 12.8826C5.57345 12.8244 6.08867 12.7196 6.59147 12.5696C6.63929 12.5556 6.6838 12.5321 6.72233 12.5005C6.76086 12.4689 6.79263 12.4299 6.81572 12.3857C6.83882 12.3416 6.85278 12.2932 6.85676 12.2436C6.86074 12.1939 6.85466 12.1439 6.83889 12.0967L6.0495 9.74355C6.01724 9.64824 5.97828 9.55533 5.9329 9.46552C5.8031 9.1162 5.56991 8.81475 5.26441 8.60134C4.95891 8.38794 4.59561 8.27272 4.22296 8.27106C4.1949 8.27053 4.1671 8.27027 4.13956 8.2708C4.11203 8.27027 4.08423 8.27053 4.05617 8.27106C3.6821 8.27267 3.3175 8.38874 3.01134 8.60366C2.70518 8.81858 2.47214 9.12207 2.34354 9.47333C2.29902 9.56051 2.26093 9.65083 2.22954 9.74355L1.44014 12.0967C1.42439 12.1439 1.41834 12.1939 1.42233 12.2435C1.42632 12.2932 1.44028 12.3415 1.46338 12.3857C1.48647 12.4298 1.51823 12.4689 1.55675 12.5005C1.59526 12.5321 1.63976 12.5556 1.68756 12.5696C2.19073 12.7197 2.70631 12.8245 3.22814 12.8827C3.25754 12.8859 3.28283 12.887 3.28283 12.887V13.4616C3.28283 13.4616 1.75592 13.974 1.0601 14.321C0.955769 14.3731 0.865172 14.449 0.795649 14.5427C0.726126 14.6363 0.679632 14.745 0.659932 14.8599C0.577028 15.4799 0.530169 16.1041 0.519592 16.7295H7.75953C7.74895 16.1041 7.70209 15.4799 7.61919 14.8599Z" fill="white"/>
</svg>
