<svg width="48" height="37" viewBox="0 0 48 37" fill="none" xmlns="http://www.w3.org/2000/svg">
<path fill-rule="evenodd" clip-rule="evenodd" d="M46.8935 24.7925C46.5732 23.8063 46.0179 22.9028 45.2452 22.0856C44.4357 21.2316 43.372 20.5708 42.0529 20.0929C40.7325 19.6189 39.0372 19.3787 36.9479 19.3787H34.1127C34.4507 15.889 35.6936 12.9191 37.8439 10.4638C39.9903 8.01621 42.9666 5.86215 46.7715 4.01436L44.4637 0.438232C39.454 2.57196 35.1675 5.69313 31.6066 9.81571C28.047 13.9421 26.2742 18.0304 26.2742 22.0856C26.2742 26.442 27.3023 29.8593 29.375 32.326C31.4478 34.7927 34.4164 36.0216 38.2759 36.0216C40.7248 36.0216 42.8522 35.2044 44.6619 33.5714C46.469 31.9409 47.3751 30.0309 47.3751 27.8526C47.3751 26.8017 47.2163 25.7787 46.8935 24.7925ZM20.9736 24.7925C20.6508 23.8063 20.0967 22.9028 19.3227 22.0856C18.5158 21.2316 17.4508 20.5708 16.1304 20.0929C14.8126 19.6189 13.1173 19.3787 11.0268 19.3787H8.19026C8.52957 15.889 9.77117 12.9191 11.9202 10.4638C14.0679 8.01621 17.0467 5.86215 20.849 4.01436L18.5425 0.438232C13.5316 2.57196 9.24758 5.69313 5.68544 9.81571C2.12583 13.9421 0.354282 18.0304 0.354282 22.0856C0.354282 26.442 1.37984 29.8593 3.45384 32.326C5.52403 34.7927 8.49273 36.0216 12.3548 36.0216C14.8024 36.0216 16.9323 35.2044 18.742 33.5714C20.5491 31.9409 21.4539 30.0309 21.4539 27.8526C21.4539 26.8017 21.2925 25.7787 20.9736 24.7925Z" fill="#092F47" fill-opacity="0.4"/>
</svg>
