<svg width="19" height="12" viewBox="0 0 19 12" fill="none" xmlns="http://www.w3.org/2000/svg">
<path fill-rule="evenodd" clip-rule="evenodd" d="M11.5762 5.00001H6.31821V6.9H9.47616C9.34884 7.71543 8.5216 9.29087 6.31821 9.29087C4.41705 9.29087 2.8659 7.72338 2.8659 5.79167C2.8659 3.86003 4.41705 2.29254 6.31821 2.29254C7.4 2.29254 8.12384 2.7517 8.5375 3.14756L10.0488 1.69878C9.0784 0.796292 7.8216 0.25 6.31821 0.25C3.23974 0.25 0.75 2.72793 0.75 5.79167C0.75 8.85548 3.23974 11.3333 6.31821 11.3333C9.53179 11.3333 11.6637 9.08502 11.6637 5.9184C11.6637 5.55418 11.6238 5.2771 11.5762 5.00001ZM16.6591 6.5834H18.25V5.00001H16.6591V3.4167H15.0682V5.00001H13.4772V6.5834H15.0682V8.16671H16.6591V6.5834Z" fill="#FF7342"/>
</svg>
