<svg width="114" height="33" viewBox="0 0 114 33" fill="none" xmlns="http://www.w3.org/2000/svg">
<path d="M12.3464 5.59058V14.6104H3.97279V5.59058H0V27.1221H3.97387V18.395H12.3453V27.1221H16.3203V5.59058H12.3464ZM29.0399 20.1627C29.0399 21.9599 27.5677 23.4168 25.7516 23.4168C23.9356 23.4168 22.4634 21.9599 22.4634 20.1627V10.9397H18.6938V20.1627C18.6938 24.0163 21.8506 27.1402 25.7446 27.1402C29.6387 27.1402 32.7954 24.0163 32.7954 20.1627V10.9397H29.0399V20.1627ZM56.971 11.8901C56.971 9.99883 58.2346 9.39964 59.6188 9.39964C60.7351 9.39964 62.2085 10.2404 63.1732 11.26L65.6414 8.38006C64.4089 6.73042 61.9095 5.59058 59.8629 5.59058C55.7729 5.59058 52.8153 7.96073 52.8153 11.8901C52.8153 19.1804 61.8192 16.8666 61.8192 20.9471C61.8192 22.2051 60.5845 23.3162 59.1714 23.3162C56.9419 23.3162 56.2192 22.2381 55.1954 21.0972L52.4551 23.9165C54.2081 26.045 56.3698 27.1263 58.9584 27.1263C62.8441 27.1263 65.9694 24.7274 65.9694 20.9769C65.9694 12.8841 56.9645 15.399 56.9645 11.8901H56.971ZM112.674 23.6823C110.447 23.6823 109.813 22.7287 109.813 21.2685V14.803H113.276V11.5271H109.813V7.20509L105.991 8.90262V22.0721C105.991 25.4405 108.34 27.138 111.56 27.138C112.065 27.1466 112.571 27.1061 113.068 27.0188L114 23.6217C113.579 23.6504 113.097 23.6791 112.674 23.6791V23.6823ZM43.3888 11.0472C41.5218 11.0472 40.2183 11.5836 38.9579 12.8064V5.71935H35.183V18.8558C35.183 23.7728 38.7751 27.1423 42.8124 27.1423C47.2906 27.1423 51.2301 23.7132 51.2301 19.0963C51.2301 14.5369 47.6047 11.0503 43.3888 11.0503V11.0472ZM43.3652 23.3822C41.8346 23.3822 40.4203 22.5741 39.655 21.2624C38.8897 19.9507 38.8897 18.3346 39.655 17.0228C40.4203 15.7111 41.8346 14.903 43.3652 14.903C45.7312 14.903 47.6493 16.8012 47.6493 19.1426C47.6493 21.4841 45.7312 23.3822 43.3652 23.3822ZM84.3858 18.9005C84.3858 14.2751 80.455 10.8545 75.9681 10.8545C71.9319 10.8545 68.3387 14.223 68.3387 19.141V32.2849H72.1136V25.1883C73.3719 26.409 74.6775 26.9475 76.5424 26.9475C80.7582 26.9475 84.3847 23.4609 84.3847 18.9005H84.3858ZM80.8109 18.8537C80.8109 21.1951 78.8929 23.0932 76.5268 23.0932C74.1607 23.0932 72.2427 21.1951 72.2427 18.8537C72.2427 16.5122 74.1607 14.6141 76.5268 14.6141C78.8929 14.6141 80.8109 16.5122 80.8109 18.8537Z" fill="#092F47" fill-opacity="0.6"/>
<path d="M96.5838 10.6737V6.91993C97.607 6.44671 98.2628 5.4322 98.268 4.31456V4.22836C98.268 2.63193 96.9602 1.33777 95.347 1.33777H95.2599C93.6467 1.33777 92.3389 2.63193 92.3389 4.22836V4.31456C92.3441 5.4322 92.9999 6.44671 94.0231 6.91993V10.6737C92.5825 10.8919 91.2257 11.4831 90.0901 12.3871L79.6871 4.36884C79.7613 4.10384 79.8 3.83138 79.8043 3.55786C79.8069 2.24045 79.0072 1.05125 77.7782 0.544918C76.5492 0.0385819 75.133 0.314854 74.1901 1.24488C73.2472 2.1749 72.9634 3.57547 73.4711 4.79333C73.9787 6.0112 75.1778 6.80645 76.5091 6.80818C77.0786 6.80552 77.6374 6.65506 78.1298 6.37182L88.3737 14.2603C86.4904 17.0758 86.5407 20.7451 88.5006 23.5089L85.3849 26.5932C85.1331 26.5135 84.8707 26.4712 84.6063 26.4676C83.1142 26.4688 81.9054 27.6663 81.9058 29.1429C81.9062 30.6194 83.1156 31.8163 84.6077 31.8167C86.0998 31.8171 87.3099 30.6208 87.3111 29.1443C87.3076 28.8826 87.2648 28.6229 87.1842 28.3737L90.2665 25.3224C93.0205 27.4206 96.803 27.6014 99.7485 25.7756C102.694 23.9498 104.18 20.503 103.475 17.1352C102.769 13.7674 100.02 11.1898 96.5838 10.6737ZM95.3061 23.0193C93.7553 23.0616 92.3036 22.2669 91.5156 20.9444C90.7276 19.6219 90.7276 17.9802 91.5156 16.6577C92.3036 15.3352 93.7553 14.5405 95.3061 14.5828C97.6009 14.6623 99.42 16.5257 99.4212 18.7979C99.4223 21.0702 97.6051 22.9354 95.3104 23.0172" fill="#FF7A59"/>
</svg>
