<svg width="24" height="24" viewBox="0 0 24 24" fill="none" xmlns="http://www.w3.org/2000/svg">
<g clip-path="url(#clip0)">
<path d="M13.8227 12.4488L0.00341797 23.9932L0.00965233 20.8777L10.813 10.0744L13.8227 12.4488Z" fill="white"/>
<path d="M21.9583 2.0384C19.2409 -0.679506 14.8346 -0.679506 12.1167 2.0384C9.94246 4.21259 9.50797 7.46792 10.8132 10.0743C11.1385 10.7255 11.5735 11.3369 12.1167 11.88L0.00357056 23.9931L6.04448 24V21.062H8.98302V18.1235H11.921V15.1855L13.9223 13.1836C16.5293 14.4888 19.7841 14.0543 21.9583 11.8801C24.6762 9.16216 24.6762 4.7563 21.9583 2.0384ZM20.0614 6.91137C19.2397 7.73309 17.9073 7.73309 17.0855 6.91137C16.2638 6.08965 16.2638 4.75728 17.0855 3.93552C17.9073 3.1138 19.2397 3.1138 20.0614 3.93552C20.8832 4.75728 20.8832 6.08961 20.0614 6.91137Z" fill="white"/>
</g>
<defs>
<clipPath id="clip0">
<rect width="24" height="24" fill="white"/>
</clipPath>
</defs>
</svg>
