<svg width="20" height="20" viewBox="0 0 20 20" fill="none" xmlns="http://www.w3.org/2000/svg">
<path fill-rule="evenodd" clip-rule="evenodd" d="M0 10.0055C0 9.83867 0.0687504 9.6793 0.183125 9.5593L6.37 3.30992C6.61438 3.06305 7.01 3.06367 7.25375 3.30992C7.49813 3.55617 7.49813 3.95617 7.25375 4.20242L2.13313 9.3743H19.375C19.72 9.3743 20 9.6568 20 10.0055C20 10.3543 19.72 10.6368 19.375 10.6368H2.13375L7.25375 15.8087C7.49813 16.0549 7.4975 16.4549 7.25375 16.7012C7.00938 16.9474 6.61375 16.9474 6.37 16.7012L0.183125 10.4518C0.0662498 10.3337 0.00187492 10.1712 0 10.0055Z" fill="#092F47"/>
</svg>
