<svg width="154" height="33" viewBox="0 0 154 33" fill="none" xmlns="http://www.w3.org/2000/svg">
<path d="M36.0672 5.55176V22.4713C36.0672 24.7504 37.3542 26.0911 39.6334 26.0911C40.411 26.0911 41.0277 25.9571 41.5372 25.7425V23.088C41.3495 23.1684 41.1082 23.222 40.7328 23.222C39.8479 23.222 39.3653 22.793 39.3653 21.6132V5.55176H36.0672ZM43.6981 25.8766H46.9962V10.9413H43.6981V25.8766ZM52.2406 10.9413H48.6476L53.7422 25.8766H57.4693L62.3226 10.9413H58.9709L56.6917 18.7441C56.2091 20.5139 55.9409 21.5864 55.7264 22.7394H55.6192C55.3778 21.5596 55.1097 20.5139 54.6002 18.7441L52.2406 10.9413ZM73.5465 22.2031C72.9566 22.7662 71.7768 23.4634 70.1948 23.4634C67.4866 23.4634 66.2532 22.1227 66.1459 19.2804H75.2894C75.4235 18.2079 75.4503 17.4035 75.4503 16.6527C75.4503 13.0328 73.3588 10.6732 69.6585 10.6732C65.7169 10.6732 62.9015 13.3009 62.9015 18.3687C62.9015 23.6511 65.2611 26.1447 69.8194 26.1447C72.3935 26.1447 73.8951 25.4476 74.9945 24.5895L73.5465 22.2031ZM69.5245 13.2473C71.4014 13.2473 72.2863 14.3199 72.3131 16.2773V16.9744H66.1996C66.3068 14.5344 67.6743 13.2473 69.5245 13.2473ZM84.5828 21.8009C84.5828 22.7126 83.9124 23.4634 82.3572 23.4634C80.5875 23.4634 79.1396 22.5249 78.3888 21.6937L76.4046 24.0265C77.2626 24.9113 79.1932 26.1447 82.1963 26.1447C86.2452 26.1447 87.8809 23.6242 87.8809 21.6132C87.8809 16.599 80.6411 17.5911 80.6411 14.9366C80.6411 14.0517 81.3383 13.3814 82.679 13.3814C83.966 13.3814 85.0386 14.0517 85.6553 14.7221L87.7736 12.577C86.8083 11.5044 85.119 10.6732 82.7594 10.6732C79.3541 10.6732 77.3699 12.7915 77.3699 15.1243C77.3699 20.1385 84.5828 19.1732 84.5828 21.8009ZM94.7878 26.0107C97.0133 26.0107 98.1127 25.528 98.649 25.1794L97.7641 22.659C97.2546 23.0343 96.5039 23.2757 95.6458 23.2757C94.5465 23.2757 93.8493 22.6858 93.8493 21.3987V13.4886H97.7373V10.9413H93.8493V7.10696H91.7042L90.6048 10.7536L88.567 11.424V13.4886H90.6048V21.3987C90.6048 24.7236 92.2673 26.0107 94.7878 26.0107ZM102.606 18.3151C102.606 14.9366 103.491 13.3278 105.69 13.3278C108.05 13.3278 108.988 15.0707 108.988 18.5028C108.988 21.8545 108.21 23.4902 105.851 23.4902C103.518 23.4902 102.606 21.7205 102.606 18.3151ZM105.717 26.1447C110.49 26.1447 112.367 22.9539 112.367 18.3419C112.367 13.73 110.785 10.6732 105.851 10.6732C101.051 10.6732 99.201 13.864 99.201 18.476C99.201 23.0612 100.81 26.1447 105.717 26.1447ZM123.269 10.7804C122.947 10.7 122.438 10.6464 121.928 10.6464C120.051 10.6464 118.71 11.6117 118.094 12.9255H117.986L117.289 10.9413H114.742V25.8766H118.013V15.3924C118.818 14.4271 120.239 13.9177 121.579 13.9177C122.116 13.9177 122.732 13.9713 123.269 14.0785V10.7804ZM135.78 12.7647H135.672C135.136 11.5849 134.117 10.6196 131.865 10.6196C130.068 10.6196 128.674 11.424 127.95 12.4161H127.843L127.253 10.9413H124.598V25.8766H127.896V15.5265C128.245 14.4271 129.291 13.435 130.605 13.435C132.187 13.435 133.018 14.4539 133.018 16.4382V25.8766H136.343V15.4192C136.745 14.3199 137.844 13.435 139.158 13.435C140.499 13.435 141.464 14.2394 141.464 16.17V25.8766H144.762V15.5801C144.762 12.2284 143.1 10.6196 140.177 10.6196C137.978 10.6196 136.477 11.6385 135.78 12.7647Z" fill="#092F47" fill-opacity="0.6"/>
<path d="M43.269 6.8925C43.269 7.99187 44.1539 8.84991 45.2533 8.84991C46.4599 8.84991 47.3179 7.99187 47.3179 6.8925C47.3179 5.68588 46.4599 4.80103 45.2533 4.80103C44.1539 4.80103 43.269 5.68588 43.269 6.8925Z" fill="#C50000"/>
<path opacity="0.4" d="M7.60988 16.8073C7.60988 15.9362 8.31731 15.23 9.19106 15.23H24.9561C25.8293 15.23 26.5373 15.938 26.5373 16.8073C26.5373 17.6784 25.8298 18.3846 24.9561 18.3846H9.19106C8.31779 18.3846 7.60988 17.6766 7.60988 16.8073ZM11.5531 23.1164C11.5531 22.2453 12.2605 21.5392 13.1291 21.5392H21.018C21.8884 21.5392 22.594 22.2471 22.594 23.1164C22.594 23.9875 21.8866 24.6937 21.018 24.6937H13.1291C12.2587 24.6937 11.5531 23.9858 11.5531 23.1164ZM3.66667 10.4982C3.66667 9.62707 4.37009 8.9209 5.24389 8.9209H28.9032C29.7743 8.9209 30.4805 9.62884 30.4805 10.4982C30.4805 11.3693 29.777 12.0755 28.9032 12.0755H5.24389C4.37282 12.0755 3.66667 11.3675 3.66667 10.4982H3.66667Z" fill="#092F47" fill-opacity="0.6"/>
<path d="M7.60988 16.8073C7.60988 15.9362 8.3125 15.23 9.18512 15.23H21.0188C21.8888 15.23 22.594 15.938 22.594 16.8073C22.594 17.6784 21.8914 18.3846 21.0188 18.3846H9.18512C8.31514 18.3846 7.60988 17.6766 7.60988 16.8073ZM11.5531 23.1164C11.5531 22.2453 12.2596 21.5392 13.1283 21.5392H17.0756C17.9456 21.5392 18.6508 22.2471 18.6508 23.1164C18.6508 23.9875 17.9443 24.6937 17.0756 24.6937H13.1283C12.2583 24.6937 11.5531 23.9858 11.5531 23.1164ZM3.66667 10.4982C3.66667 9.62707 4.37622 8.9209 5.24768 8.9209H24.9562C25.8294 8.9209 26.5373 9.62884 26.5373 10.4982C26.5373 11.3693 25.8277 12.0755 24.9562 12.0755H5.24768C4.37451 12.0755 3.66667 11.3675 3.66667 10.4982V10.4982Z" fill="#092F47" fill-opacity="0.6"/>
</svg>
