<svg width="125" height="45" viewBox="0 0 125 45" fill="none" xmlns="http://www.w3.org/2000/svg">
<circle cx="25" cy="24" r="16" fill="#FE7240"/>
<rect x="0.819885" y="28.8335" width="47" height="3" rx="1.5" transform="rotate(-19.2548 0.819885 28.8335)" fill="#FB4200"/>
<rect x="7.81989" y="31.8335" width="38.5306" height="3" rx="1.5" transform="rotate(-19.2548 7.81989 31.8335)" fill="#FB4200"/>
<path d="M77.44 12.06V33H73.24V24.09H64.27V33H60.07V12.06H64.27V20.67H73.24V12.06H77.44ZM85.7739 18.96C86.3139 18.08 87.0139 17.39 87.8739 16.89C88.7539 16.39 89.7539 16.14 90.8739 16.14V20.55H89.7639C88.4439 20.55 87.4439 20.86 86.7639 21.48C86.1039 22.1 85.7739 23.18 85.7739 24.72V33H81.5739V16.38H85.7739V18.96ZM97.9028 18.96C98.4428 18.08 99.1428 17.39 100.003 16.89C100.883 16.39 101.883 16.14 103.003 16.14V20.55H101.893C100.573 20.55 99.5728 20.86 98.8928 21.48C98.2328 22.1 97.9028 23.18 97.9028 24.72V33H93.7028V16.38H97.9028V18.96Z" fill="#092F47"/>
<path d="M104.752 24.63C104.752 22.95 105.082 21.46 105.742 20.16C106.422 18.86 107.342 17.86 108.502 17.16C109.662 16.46 110.952 16.11 112.372 16.11C113.452 16.11 114.482 16.35 115.462 16.83C116.442 17.29 117.222 17.91 117.802 18.69V10.8H122.062V33H117.802V30.54C117.282 31.36 116.552 32.02 115.612 32.52C114.672 33.02 113.582 33.27 112.342 33.27C110.942 33.27 109.662 32.91 108.502 32.19C107.342 31.47 106.422 30.46 105.742 29.16C105.082 27.84 104.752 26.33 104.752 24.63ZM117.832 24.69C117.832 23.67 117.632 22.8 117.232 22.08C116.832 21.34 116.292 20.78 115.612 20.4C114.932 20 114.202 19.8 113.422 19.8C112.642 19.8 111.922 19.99 111.262 20.37C110.602 20.75 110.062 21.31 109.642 22.05C109.242 22.77 109.042 23.63 109.042 24.63C109.042 25.63 109.242 26.51 109.642 27.27C110.062 28.01 110.602 28.58 111.262 28.98C111.942 29.38 112.662 29.58 113.422 29.58C114.202 29.58 114.932 29.39 115.612 29.01C116.292 28.61 116.832 28.05 117.232 27.33C117.632 26.59 117.832 25.71 117.832 24.69Z" fill="#FE4300"/>
</svg>
