<svg width="22" height="20" viewBox="0 0 22 20" fill="none" xmlns="http://www.w3.org/2000/svg">
<path d="M0.211983 19.2H3.67399V12.834H0.211983V19.2Z" fill="white"/>
<path d="M4.74198 19.2H8.20398V11.304H4.74198V19.2Z" fill="white"/>
<path d="M9.26598 19.2H12.734V8.99997H9.26598V19.2Z" fill="white"/>
<path d="M13.796 19.2H17.258V6.31198H13.796V19.2Z" fill="white"/>
<path d="M18.326 19.2H21.788V3.51599H18.326V19.2Z" fill="white"/>
<path d="M17.5573 0.53998C17.5573 0.509981 17.5513 0.485981 17.5453 0.455981C17.5393 0.431981 17.5453 0.407981 17.5393 0.383981C17.5393 0.371981 17.5333 0.365981 17.5273 0.353981C17.5273 0.347981 17.5273 0.341981 17.5213 0.341981C17.5213 0.335981 17.5153 0.329981 17.5153 0.323981C17.4913 0.269981 17.4673 0.221981 17.4253 0.179981C17.4253 0.173981 17.4193 0.167981 17.4133 0.167981C17.4133 0.167981 17.4133 0.161981 17.4073 0.161981C17.4073 0.161981 17.4013 0.155981 17.3953 0.155981C17.3533 0.113981 17.3113 0.0839815 17.2573 0.0539815C17.2513 0.0539815 17.2513 0.0479814 17.2453 0.0479814H17.2393C17.2333 0.0479814 17.2273 0.0419815 17.2213 0.0419815C17.1733 0.0239815 17.1133 0.0119814 17.0593 0.00598145C17.0533 0.00598145 17.0533 0.00598145 17.0413 0.00598145C17.0353 0.00598145 17.0293 0.00598145 17.0233 0.00598145C16.9813 0.00598145 16.9333 0.0119816 16.8853 0.0239816L12.7693 1.24198C12.4933 1.31998 12.3373 1.61998 12.4153 1.90198C12.4813 2.13598 12.6853 2.29198 12.9133 2.29198C12.9613 2.29198 13.0093 2.28598 13.0573 2.27398L15.0433 1.68598C11.0593 5.14197 6.11528 7.55397 0.625277 8.69996C0.349277 8.75996 0.169277 9.04196 0.223277 9.32996C0.271277 9.58196 0.487277 9.75596 0.727277 9.75596C0.763277 9.75596 0.793277 9.74996 0.829277 9.74396C6.42128 8.57996 11.4673 6.12597 15.5653 2.61598L14.9833 3.94797C14.8693 4.21797 14.9833 4.53597 15.2413 4.65597C15.3133 4.68597 15.3853 4.70397 15.4513 4.70397C15.6493 4.70397 15.8353 4.58997 15.9193 4.39197L17.5093 0.75598V0.74998C17.5213 0.72598 17.5213 0.69598 17.5273 0.67198C17.5333 0.64198 17.5453 0.61198 17.5513 0.57598C17.5513 0.56398 17.5573 0.55198 17.5573 0.53998Z" fill="white"/>
</svg>
