<svg width="83" height="28" viewBox="0 0 83 28" fill="none" xmlns="http://www.w3.org/2000/svg">
<path d="M10.4372 7.01025C4.66875 7.01025 0 11.6769 0 17.4428C0 23.2088 4.66875 27.8754 10.4372 27.8754C16.2057 27.8754 20.8745 23.2088 20.8745 17.4428C20.8745 11.6769 16.2057 7.01025 10.4372 7.01025ZM10.4372 22.6695C7.553 22.6695 5.20825 20.3258 5.20825 17.4428C5.20825 14.5599 7.553 12.2162 10.4372 12.2162C13.3215 12.2162 15.6662 14.5599 15.6662 17.4428C15.6662 20.3258 13.3215 22.6695 10.4372 22.6695Z" fill="white"/>
<path d="M28.7802 20.9482C28.7802 20.1185 29.7762 19.7244 30.3572 20.3052C32.9717 22.96 37.2877 27.523 37.3085 27.5437C37.3707 27.6059 37.433 27.7096 37.682 27.7926C37.7857 27.8341 37.9517 27.8341 38.1385 27.8341H42.8487C43.6995 27.8341 43.9485 26.8593 43.5542 26.3615L35.7522 18.3763L35.3372 17.9615C34.445 16.9037 34.5487 16.4889 35.5655 15.4104L41.749 8.50371C42.1432 8.00593 41.8942 7.05185 41.0227 7.05185H36.7482C36.5822 7.05185 36.4577 7.05185 36.3332 7.09333C36.0842 7.1763 35.9805 7.25926 35.9182 7.34222C35.8975 7.36296 32.4737 11.0548 30.3572 13.3156C29.7762 13.9378 28.7387 13.523 28.7387 12.6726V0.82963C28.7387 0.228148 28.2407 0 27.8465 0H24.3605C23.7587 0 23.4682 0.394074 23.4682 0.746667V27.0044C23.4682 27.6059 23.9662 27.7719 24.3812 27.7719H27.8672C28.4067 27.7719 28.7595 27.3778 28.7595 26.9837V26.7141V20.9482H28.7802Z" fill="white"/>
<path d="M57.2493 26.88L56.8758 23.3956C56.8343 22.9185 56.3778 22.5867 55.9005 22.6696C55.6308 22.7111 55.361 22.7318 55.0913 22.7318C52.3108 22.7318 50.049 20.5541 49.883 17.7956C49.883 17.7126 49.883 17.6089 49.883 17.5052V13.2326C49.883 12.6726 50.298 12.2163 50.8583 12.2163H55.527C55.859 12.2163 56.357 11.9259 56.357 11.3244V8.02667C56.357 7.3837 55.942 7.05185 55.5685 7.05185H50.8583C50.3188 7.05185 49.883 6.65778 49.8623 6.11852V0.82963C49.8623 0.497778 49.6133 0 48.97 0H45.5048C45.069 0 44.654 0.26963 44.654 0.808889V17.7956C44.7992 23.437 49.4265 27.9378 55.0913 27.9378C55.5685 27.9378 56.025 27.8963 56.4815 27.8341C56.9795 27.7718 57.3115 27.357 57.2493 26.88Z" fill="white"/>
<path d="M82.3983 22.5038C79.4518 22.5038 78.9953 21.446 78.9953 17.4846C78.9953 17.4638 78.9953 17.4638 78.9953 17.4431V7.92308C78.9953 7.59123 78.7462 7.03123 78.0822 7.03123H74.5962C74.1605 7.03123 73.6833 7.38382 73.6833 7.92308V8.35863C72.1685 7.48752 70.4047 6.98975 68.5372 6.98975C62.7687 6.98975 58.1 11.6564 58.1 17.4223C58.1 23.1883 62.7687 27.8549 68.5372 27.8549C71.131 27.8549 73.4965 26.9009 75.3225 25.3453C76.2977 26.8386 77.8748 27.8342 80.344 27.8549C80.759 27.8549 83 27.9379 83 26.8801V23.1675C83 22.8564 82.751 22.5038 82.3983 22.5038ZM68.558 22.6697C65.6737 22.6697 63.329 20.326 63.329 17.4431C63.329 14.5601 65.6737 12.2164 68.558 12.2164C71.4422 12.2164 73.787 14.5601 73.787 17.4431C73.7663 20.326 71.4215 22.6697 68.558 22.6697Z" fill="white"/>
</svg>
