<svg width="20" height="20" viewBox="0 0 20 20" fill="none" xmlns="http://www.w3.org/2000/svg">
<path fill-rule="evenodd" clip-rule="evenodd" d="M20 10.0055C20 9.83867 19.9312 9.6793 19.8169 9.5593L13.63 3.30992C13.3856 3.06305 12.99 3.06367 12.7462 3.30992C12.5019 3.55617 12.5019 3.95617 12.7462 4.20242L17.8669 9.3743H0.625C0.28 9.3743 0 9.6568 0 10.0055C0 10.3543 0.28 10.6368 0.625 10.6368H17.8663L12.7462 15.8087C12.5019 16.0549 12.5025 16.4549 12.7462 16.7012C12.9906 16.9474 13.3863 16.9474 13.63 16.7012L19.8169 10.4518C19.9338 10.3337 19.9981 10.1712 20 10.0055Z" fill="#092F47"/>
</svg>
