<svg width="48" height="37" viewBox="0 0 48 37" fill="none" xmlns="http://www.w3.org/2000/svg">
<path fill-rule="evenodd" clip-rule="evenodd" d="M1.10654 12.2075C1.42679 13.1937 1.98214 14.0972 2.7548 14.9144C3.56433 15.7684 4.628 16.4292 5.94713 16.9071C7.26752 17.3811 8.96281 17.6213 11.0521 17.6213L13.8873 17.6213C13.5493 21.111 12.3064 24.0809 10.1561 26.5362C8.00971 28.9838 5.03342 31.1378 1.22855 32.9856L3.53635 36.5618C8.54597 34.428 12.8325 31.3069 16.3934 27.1843C19.953 23.0579 21.7258 18.9696 21.7258 14.9144C21.7258 10.558 20.6977 7.1407 18.625 4.67401C16.5522 2.20733 13.5836 0.978433 9.72406 0.978432C7.27517 0.978432 5.14776 1.79557 3.3381 3.4286C1.53097 5.05907 0.624892 6.96914 0.624892 9.14735C0.624892 10.1983 0.783743 11.2213 1.10654 12.2075ZM27.0264 12.2075C27.3492 13.1937 27.9033 14.0972 28.6773 14.9144C29.4843 15.7684 30.5492 16.4292 31.8696 16.9071C33.1875 17.3811 34.8827 17.6213 36.9733 17.6213L39.8097 17.6213C39.4704 21.111 38.2288 24.0809 36.0799 26.5362C33.9321 28.9838 30.9533 31.1379 27.151 32.9856L29.4575 36.5618C34.4684 34.428 38.7524 31.3069 42.3146 27.1843C45.8742 23.0579 47.6457 18.9696 47.6457 14.9144C47.6457 10.558 46.6202 7.1407 44.5462 4.67401C42.476 2.20733 39.5073 0.978435 35.6452 0.978434C33.1976 0.978434 31.0677 1.79558 29.258 3.4286C27.4509 5.05908 26.5461 6.96914 26.5461 9.14735C26.5461 10.1983 26.7075 11.2213 27.0264 12.2075Z" fill="#092F47" fill-opacity="0.4"/>
</svg>
