<svg width="688" height="482" viewBox="0 0 688 482" fill="none" xmlns="http://www.w3.org/2000/svg">
<g filter="url(#filter0_d)">
<rect x="70" y="35" width="597" height="447" fill="white"/>
</g>
<path d="M113.44 75.53L109.6 86H107.05L103.21 75.53H105.46L108.34 83.855L111.205 75.53H113.44ZM115.764 76.7C115.394 76.7 115.084 76.585 114.834 76.355C114.594 76.115 114.474 75.82 114.474 75.47C114.474 75.12 114.594 74.83 114.834 74.6C115.084 74.36 115.394 74.24 115.764 74.24C116.134 74.24 116.439 74.36 116.679 74.6C116.929 74.83 117.054 75.12 117.054 75.47C117.054 75.82 116.929 76.115 116.679 76.355C116.439 76.585 116.134 76.7 115.764 76.7ZM116.799 77.69V86H114.699V77.69H116.799ZM126.599 81.665C126.599 81.965 126.579 82.235 126.539 82.475H120.464C120.514 83.075 120.724 83.545 121.094 83.885C121.464 84.225 121.919 84.395 122.459 84.395C123.239 84.395 123.794 84.06 124.124 83.39H126.389C126.149 84.19 125.689 84.85 125.009 85.37C124.329 85.88 123.494 86.135 122.504 86.135C121.704 86.135 120.984 85.96 120.344 85.61C119.714 85.25 119.219 84.745 118.859 84.095C118.509 83.445 118.334 82.695 118.334 81.845C118.334 80.985 118.509 80.23 118.859 79.58C119.209 78.93 119.699 78.43 120.329 78.08C120.959 77.73 121.684 77.555 122.504 77.555C123.294 77.555 123.999 77.725 124.619 78.065C125.249 78.405 125.734 78.89 126.074 79.52C126.424 80.14 126.599 80.855 126.599 81.665ZM124.424 81.065C124.414 80.525 124.219 80.095 123.839 79.775C123.459 79.445 122.994 79.28 122.444 79.28C121.924 79.28 121.484 79.44 121.124 79.76C120.774 80.07 120.559 80.505 120.479 81.065H124.424ZM139.652 77.69L137.222 86H134.957L133.442 80.195L131.927 86H129.647L127.202 77.69H129.332L130.802 84.02L132.392 77.69H134.612L136.172 84.005L137.642 77.69H139.652Z" fill="#092F47"/>
<g filter="url(#filter1_d)">
<rect x="243" y="95" width="128" height="59" rx="10" fill="white"/>
</g>
<circle cx="271.5" cy="124.5" r="15.5" fill="#FF7342"/>
<rect x="297" y="119" width="45" height="4" rx="2" fill="black" fill-opacity="0.7"/>
<rect x="297" y="128" width="64" height="4" rx="2" fill="#C4C4C4" fill-opacity="0.4"/>
<g filter="url(#filter2_d)">
<rect x="383" y="95" width="128" height="59" rx="10" fill="white"/>
</g>
<circle cx="410.5" cy="125.5" r="15.5" fill="#ADD8E6"/>
<rect x="436" y="120" width="45" height="4" rx="2" fill="black" fill-opacity="0.7"/>
<rect x="436" y="129" width="64" height="4" rx="2" fill="#C4C4C4" fill-opacity="0.4"/>
<rect x="523.5" y="95.5" width="127" height="58" rx="9.5" stroke="black" stroke-opacity="0.4" stroke-linecap="round" stroke-dasharray="3 3"/>
<g filter="url(#filter3_d)">
<rect x="560" y="70" width="128" height="59" rx="10" fill="white"/>
</g>
<path d="M607.66 92.556C607.7 91.756 607.98 91.14 608.5 90.708C609.028 90.268 609.72 90.048 610.576 90.048C611.16 90.048 611.66 90.152 612.076 90.36C612.492 90.56 612.804 90.836 613.012 91.188C613.228 91.532 613.336 91.924 613.336 92.364C613.336 92.868 613.204 93.296 612.94 93.648C612.684 93.992 612.376 94.224 612.016 94.344V94.392C612.48 94.536 612.84 94.792 613.096 95.16C613.36 95.528 613.492 96 613.492 96.576C613.492 97.056 613.38 97.484 613.156 97.86C612.94 98.236 612.616 98.532 612.184 98.748C611.76 98.956 611.248 99.06 610.648 99.06C609.744 99.06 609.008 98.832 608.44 98.376C607.872 97.92 607.572 97.248 607.54 96.36H609.172C609.188 96.752 609.32 97.068 609.568 97.308C609.824 97.54 610.172 97.656 610.612 97.656C611.02 97.656 611.332 97.544 611.548 97.32C611.772 97.088 611.884 96.792 611.884 96.432C611.884 95.952 611.732 95.608 611.428 95.4C611.124 95.192 610.652 95.088 610.012 95.088H609.664V93.708H610.012C611.148 93.708 611.716 93.328 611.716 92.568C611.716 92.224 611.612 91.956 611.404 91.764C611.204 91.572 610.912 91.476 610.528 91.476C610.152 91.476 609.86 91.58 609.652 91.788C609.452 91.988 609.336 92.244 609.304 92.556H607.66ZM616.764 96.54C616.828 96.892 616.972 97.164 617.196 97.356C617.428 97.54 617.736 97.632 618.12 97.632C618.616 97.632 618.976 97.428 619.2 97.02C619.424 96.604 619.536 95.908 619.536 94.932C619.352 95.188 619.092 95.388 618.756 95.532C618.428 95.676 618.072 95.748 617.688 95.748C617.176 95.748 616.712 95.644 616.296 95.436C615.888 95.22 615.564 94.904 615.324 94.488C615.084 94.064 614.964 93.552 614.964 92.952C614.964 92.064 615.228 91.36 615.756 90.84C616.284 90.312 617.004 90.048 617.916 90.048C619.052 90.048 619.852 90.412 620.316 91.14C620.788 91.868 621.024 92.964 621.024 94.428C621.024 95.468 620.932 96.32 620.748 96.984C620.572 97.648 620.264 98.152 619.824 98.496C619.392 98.84 618.8 99.012 618.048 99.012C617.456 99.012 616.952 98.9 616.536 98.676C616.12 98.444 615.8 98.144 615.576 97.776C615.36 97.4 615.236 96.988 615.204 96.54H616.764ZM618.036 94.38C618.452 94.38 618.78 94.252 619.02 93.996C619.26 93.74 619.38 93.396 619.38 92.964C619.38 92.492 619.252 92.128 618.996 91.872C618.748 91.608 618.408 91.476 617.976 91.476C617.544 91.476 617.2 91.612 616.944 91.884C616.696 92.148 616.572 92.5 616.572 92.94C616.572 93.364 616.692 93.712 616.932 93.984C617.18 94.248 617.548 94.38 618.036 94.38ZM623.795 94.368C622.995 93.952 622.595 93.308 622.595 92.436C622.595 92.004 622.703 91.612 622.919 91.26C623.143 90.9 623.475 90.616 623.915 90.408C624.363 90.192 624.907 90.084 625.547 90.084C626.187 90.084 626.727 90.192 627.167 90.408C627.615 90.616 627.947 90.9 628.163 91.26C628.387 91.612 628.499 92.004 628.499 92.436C628.499 92.876 628.391 93.264 628.175 93.6C627.959 93.928 627.671 94.184 627.311 94.368C627.751 94.56 628.095 94.84 628.343 95.208C628.591 95.576 628.715 96.012 628.715 96.516C628.715 97.06 628.575 97.536 628.295 97.944C628.023 98.344 627.647 98.652 627.167 98.868C626.687 99.084 626.147 99.192 625.547 99.192C624.947 99.192 624.407 99.084 623.927 98.868C623.455 98.652 623.079 98.344 622.799 97.944C622.527 97.536 622.391 97.06 622.391 96.516C622.391 96.012 622.515 95.576 622.763 95.208C623.011 94.832 623.355 94.552 623.795 94.368ZM626.867 92.676C626.867 92.284 626.747 91.98 626.507 91.764C626.275 91.548 625.955 91.44 625.547 91.44C625.147 91.44 624.827 91.548 624.587 91.764C624.355 91.98 624.239 92.288 624.239 92.688C624.239 93.048 624.359 93.336 624.599 93.552C624.847 93.768 625.163 93.876 625.547 93.876C625.931 93.876 626.247 93.768 626.495 93.552C626.743 93.328 626.867 93.036 626.867 92.676ZM625.547 95.1C625.091 95.1 624.719 95.216 624.431 95.448C624.151 95.68 624.011 96.012 624.011 96.444C624.011 96.844 624.147 97.172 624.419 97.428C624.699 97.676 625.075 97.8 625.547 97.8C626.019 97.8 626.391 97.672 626.663 97.416C626.935 97.16 627.071 96.836 627.071 96.444C627.071 96.02 626.931 95.692 626.651 95.46C626.371 95.22 626.003 95.1 625.547 95.1ZM634.962 99L631.914 95.268V99H630.234V90.624H631.914V94.38L634.962 90.624H636.99L633.534 94.776L637.086 99H634.962Z" fill="#092F47"/>
<circle cx="585.5" cy="100.5" r="15.5" fill="#ADD8E6" fill-opacity="0.4"/>
<path d="M577.589 99.229H579.538C579.634 99.229 579.725 99.2671 579.793 99.3348C579.861 99.4025 579.899 99.4944 579.899 99.5902V105.739C579.899 105.834 579.861 105.926 579.793 105.994C579.725 106.062 579.634 106.1 579.538 106.1H577.589C577.493 106.1 577.401 106.062 577.333 105.994C577.265 105.926 577.227 105.834 577.227 105.739V99.5902C577.227 99.4944 577.265 99.4025 577.333 99.3348C577.401 99.2671 577.493 99.229 577.589 99.229Z" fill="#1F1FFF"/>
<path d="M590.525 97.2134H586.909L586.918 97.1843L587.069 96.6986L587.216 96.2265L587.656 94.813L587.87 94.1235C587.881 94.0879 587.891 94.0517 587.898 94.0151C587.899 94.0144 587.899 94.0144 587.898 94.0137C587.919 93.9228 587.929 93.8299 587.929 93.7367C587.929 93.6606 587.922 93.5847 587.908 93.5098C587.861 93.2429 587.732 92.9974 587.539 92.8074C587.345 92.6175 587.098 92.4927 586.83 92.4503C586.562 92.408 586.288 92.4502 586.045 92.5712C585.803 92.6921 585.604 92.8858 585.477 93.1251L581.959 98.652C581.664 99.1379 581.255 99.5447 580.768 99.8373C580.768 99.8376 580.768 99.8378 580.767 99.8379C580.767 99.838 580.766 99.8381 580.766 99.838C580.692 99.8794 580.631 99.9396 580.588 100.012C580.545 100.085 580.523 100.168 580.522 100.253V105.622C580.522 105.722 580.554 105.819 580.612 105.9C580.671 105.981 580.754 106.041 580.849 106.072C580.86 106.075 580.871 106.078 580.882 106.081C580.914 106.089 582.556 106.392 582.556 106.392L583.553 106.506C583.902 106.545 584.253 106.565 584.604 106.565H588.969C589.293 106.565 589.608 106.453 589.86 106.248C590.112 106.043 590.285 105.758 590.351 105.44L591.773 98.5816C591.773 97.6157 590.975 97.2655 590.525 97.2134Z" fill="#1F1FFF"/>
<path d="M612.06 103.03V103.77H610.16V110H609.25V103.77H607.34V103.03H612.06ZM615.57 110.09C615.057 110.09 614.59 109.973 614.17 109.74C613.757 109.507 613.43 109.177 613.19 108.75C612.957 108.317 612.84 107.817 612.84 107.25C612.84 106.69 612.96 106.197 613.2 105.77C613.447 105.337 613.78 105.007 614.2 104.78C614.62 104.547 615.09 104.43 615.61 104.43C616.13 104.43 616.6 104.547 617.02 104.78C617.44 105.007 617.77 105.333 618.01 105.76C618.257 106.187 618.38 106.683 618.38 107.25C618.38 107.817 618.253 108.317 618 108.75C617.753 109.177 617.417 109.507 616.99 109.74C616.563 109.973 616.09 110.09 615.57 110.09ZM615.57 109.29C615.897 109.29 616.203 109.213 616.49 109.06C616.777 108.907 617.007 108.677 617.18 108.37C617.36 108.063 617.45 107.69 617.45 107.25C617.45 106.81 617.363 106.437 617.19 106.13C617.017 105.823 616.79 105.597 616.51 105.45C616.23 105.297 615.927 105.22 615.6 105.22C615.267 105.22 614.96 105.297 614.68 105.45C614.407 105.597 614.187 105.823 614.02 106.13C613.853 106.437 613.77 106.81 613.77 107.25C613.77 107.697 613.85 108.073 614.01 108.38C614.177 108.687 614.397 108.917 614.67 109.07C614.943 109.217 615.243 109.29 615.57 109.29ZM620.687 105.27V108.5C620.687 108.767 620.743 108.957 620.857 109.07C620.97 109.177 621.167 109.23 621.447 109.23H622.117V110H621.297C620.79 110 620.41 109.883 620.157 109.65C619.903 109.417 619.777 109.033 619.777 108.5V105.27H619.067V104.52H619.777V103.14H620.687V104.52H622.117V105.27H620.687ZM622.879 107.24C622.879 106.68 622.993 106.19 623.219 105.77C623.446 105.343 623.756 105.013 624.149 104.78C624.549 104.547 624.993 104.43 625.479 104.43C625.959 104.43 626.376 104.533 626.729 104.74C627.083 104.947 627.346 105.207 627.519 105.52V104.52H628.439V110H627.519V108.98C627.339 109.3 627.069 109.567 626.709 109.78C626.356 109.987 625.943 110.09 625.469 110.09C624.983 110.09 624.543 109.97 624.149 109.73C623.756 109.49 623.446 109.153 623.219 108.72C622.993 108.287 622.879 107.793 622.879 107.24ZM627.519 107.25C627.519 106.837 627.436 106.477 627.269 106.17C627.103 105.863 626.876 105.63 626.589 105.47C626.309 105.303 625.999 105.22 625.659 105.22C625.319 105.22 625.009 105.3 624.729 105.46C624.449 105.62 624.226 105.853 624.059 106.16C623.893 106.467 623.809 106.827 623.809 107.24C623.809 107.66 623.893 108.027 624.059 108.34C624.226 108.647 624.449 108.883 624.729 109.05C625.009 109.21 625.319 109.29 625.659 109.29C625.999 109.29 626.309 109.21 626.589 109.05C626.876 108.883 627.103 108.647 627.269 108.34C627.436 108.027 627.519 107.663 627.519 107.25ZM630.887 102.6V110H629.977V102.6H630.887ZM636.014 102.6V110H635.104V102.6H636.014ZM638.035 103.63C637.862 103.63 637.715 103.57 637.595 103.45C637.475 103.33 637.415 103.183 637.415 103.01C637.415 102.837 637.475 102.69 637.595 102.57C637.715 102.45 637.862 102.39 638.035 102.39C638.202 102.39 638.342 102.45 638.455 102.57C638.575 102.69 638.635 102.837 638.635 103.01C638.635 103.183 638.575 103.33 638.455 103.45C638.342 103.57 638.202 103.63 638.035 103.63ZM638.475 104.52V110H637.565V104.52H638.475ZM643.086 110L640.936 107.58V110H640.026V102.6H640.936V106.95L643.046 104.52H644.316L641.736 107.25L644.326 110H643.086ZM650.172 107.05C650.172 107.223 650.162 107.407 650.142 107.6H645.762C645.796 108.14 645.979 108.563 646.312 108.87C646.652 109.17 647.062 109.32 647.542 109.32C647.936 109.32 648.262 109.23 648.522 109.05C648.789 108.863 648.976 108.617 649.082 108.31H650.062C649.916 108.837 649.622 109.267 649.182 109.6C648.742 109.927 648.196 110.09 647.542 110.09C647.022 110.09 646.556 109.973 646.142 109.74C645.736 109.507 645.416 109.177 645.182 108.75C644.949 108.317 644.832 107.817 644.832 107.25C644.832 106.683 644.946 106.187 645.172 105.76C645.399 105.333 645.716 105.007 646.122 104.78C646.536 104.547 647.009 104.43 647.542 104.43C648.062 104.43 648.522 104.543 648.922 104.77C649.322 104.997 649.629 105.31 649.842 105.71C650.062 106.103 650.172 106.55 650.172 107.05ZM649.232 106.86C649.232 106.513 649.156 106.217 649.002 105.97C648.849 105.717 648.639 105.527 648.372 105.4C648.112 105.267 647.822 105.2 647.502 105.2C647.042 105.2 646.649 105.347 646.322 105.64C646.002 105.933 645.819 106.34 645.772 106.86H649.232ZM653.314 110.09C652.894 110.09 652.517 110.02 652.184 109.88C651.85 109.733 651.587 109.533 651.394 109.28C651.2 109.02 651.094 108.723 651.074 108.39H652.014C652.04 108.663 652.167 108.887 652.394 109.06C652.627 109.233 652.93 109.32 653.304 109.32C653.65 109.32 653.924 109.243 654.124 109.09C654.324 108.937 654.424 108.743 654.424 108.51C654.424 108.27 654.317 108.093 654.104 107.98C653.89 107.86 653.56 107.743 653.114 107.63C652.707 107.523 652.374 107.417 652.114 107.31C651.86 107.197 651.64 107.033 651.454 106.82C651.274 106.6 651.184 106.313 651.184 105.96C651.184 105.68 651.267 105.423 651.434 105.19C651.6 104.957 651.837 104.773 652.144 104.64C652.45 104.5 652.8 104.43 653.194 104.43C653.8 104.43 654.29 104.583 654.664 104.89C655.037 105.197 655.237 105.617 655.264 106.15H654.354C654.334 105.863 654.217 105.633 654.004 105.46C653.797 105.287 653.517 105.2 653.164 105.2C652.837 105.2 652.577 105.27 652.384 105.41C652.19 105.55 652.094 105.733 652.094 105.96C652.094 106.14 652.15 106.29 652.264 106.41C652.384 106.523 652.53 106.617 652.704 106.69C652.884 106.757 653.13 106.833 653.444 106.92C653.837 107.027 654.157 107.133 654.404 107.24C654.65 107.34 654.86 107.493 655.034 107.7C655.214 107.907 655.307 108.177 655.314 108.51C655.314 108.81 655.23 109.08 655.064 109.32C654.897 109.56 654.66 109.75 654.354 109.89C654.054 110.023 653.707 110.09 653.314 110.09Z" fill="#092F47" fill-opacity="0.7"/>
<g filter="url(#filter4_d)">
<rect x="103" y="95" width="128" height="59" rx="10" fill="white"/>
</g>
<circle cx="131.5" cy="124.5" r="15.5" fill="#FFC670"/>
<rect x="157" y="119" width="45" height="4" rx="2" fill="black" fill-opacity="0.7"/>
<rect x="157" y="128" width="64" height="4" rx="2" fill="#C4C4C4" fill-opacity="0.4"/>
<g filter="url(#filter5_d)">
<rect x="117" y="182" width="345" height="154" rx="10" fill="white"/>
</g>
<path d="M401.288 298.87H398.642V301.586H396.794V298.87H394.148V297.162H396.794V294.446H398.642V297.162H401.288V298.87ZM402.938 294.6V292.794H406.312V303H404.296V294.6H402.938ZM408.864 300.788C409.76 300.041 410.474 299.421 411.006 298.926C411.538 298.422 411.981 297.899 412.336 297.358C412.691 296.817 412.868 296.285 412.868 295.762C412.868 295.286 412.756 294.913 412.532 294.642C412.308 294.371 411.963 294.236 411.496 294.236C411.029 294.236 410.67 294.395 410.418 294.712C410.166 295.02 410.035 295.445 410.026 295.986H408.122C408.159 294.866 408.491 294.017 409.116 293.438C409.751 292.859 410.553 292.57 411.524 292.57C412.588 292.57 413.405 292.855 413.974 293.424C414.543 293.984 414.828 294.726 414.828 295.65C414.828 296.378 414.632 297.073 414.24 297.736C413.848 298.399 413.4 298.977 412.896 299.472C412.392 299.957 411.734 300.545 410.922 301.236H415.052V302.86H408.136V301.404L408.864 300.788ZM416.287 297.764C416.287 296.149 416.576 294.885 417.155 293.97C417.743 293.055 418.714 292.598 420.067 292.598C421.42 292.598 422.386 293.055 422.965 293.97C423.553 294.885 423.847 296.149 423.847 297.764C423.847 299.388 423.553 300.662 422.965 301.586C422.386 302.51 421.42 302.972 420.067 302.972C418.714 302.972 417.743 302.51 417.155 301.586C416.576 300.662 416.287 299.388 416.287 297.764ZM421.915 297.764C421.915 297.073 421.868 296.495 421.775 296.028C421.691 295.552 421.514 295.165 421.243 294.866C420.982 294.567 420.59 294.418 420.067 294.418C419.544 294.418 419.148 294.567 418.877 294.866C418.616 295.165 418.438 295.552 418.345 296.028C418.261 296.495 418.219 297.073 418.219 297.764C418.219 298.473 418.261 299.071 418.345 299.556C418.429 300.032 418.606 300.419 418.877 300.718C419.148 301.007 419.544 301.152 420.067 301.152C420.59 301.152 420.986 301.007 421.257 300.718C421.528 300.419 421.705 300.032 421.789 299.556C421.873 299.071 421.915 298.473 421.915 297.764Z" fill="#092F47"/>
<rect x="393" y="199" width="38" height="3" rx="1.5" fill="#092F47" fill-opacity="0.4"/>
<rect x="393" y="238" width="27" height="3" rx="1.5" fill="#FF7342"/>
<rect x="393" y="284" width="19" height="3" rx="1.5" fill="#FF7342"/>
<path d="M394.358 254.788C395.254 254.041 395.968 253.421 396.5 252.926C397.032 252.422 397.475 251.899 397.83 251.358C398.185 250.817 398.362 250.285 398.362 249.762C398.362 249.286 398.25 248.913 398.026 248.642C397.802 248.371 397.457 248.236 396.99 248.236C396.523 248.236 396.164 248.395 395.912 248.712C395.66 249.02 395.529 249.445 395.52 249.986H393.616C393.653 248.866 393.985 248.017 394.61 247.438C395.245 246.859 396.047 246.57 397.018 246.57C398.082 246.57 398.899 246.855 399.468 247.424C400.037 247.984 400.322 248.726 400.322 249.65C400.322 250.378 400.126 251.073 399.734 251.736C399.342 252.399 398.894 252.977 398.39 253.472C397.886 253.957 397.228 254.545 396.416 255.236H400.546V256.86H393.63V255.404L394.358 254.788ZM408.641 248.488H404.105V250.882C404.301 250.639 404.581 250.443 404.945 250.294C405.309 250.135 405.696 250.056 406.107 250.056C406.854 250.056 407.465 250.219 407.941 250.546C408.417 250.873 408.762 251.293 408.977 251.806C409.192 252.31 409.299 252.851 409.299 253.43C409.299 254.503 408.991 255.367 408.375 256.02C407.768 256.673 406.9 257 405.771 257C404.707 257 403.858 256.734 403.223 256.202C402.588 255.67 402.229 254.975 402.145 254.116H404.049C404.133 254.489 404.32 254.788 404.609 255.012C404.908 255.236 405.286 255.348 405.743 255.348C406.294 255.348 406.709 255.175 406.989 254.83C407.269 254.485 407.409 254.027 407.409 253.458C407.409 252.879 407.264 252.441 406.975 252.142C406.695 251.834 406.28 251.68 405.729 251.68C405.337 251.68 405.01 251.778 404.749 251.974C404.488 252.17 404.301 252.431 404.189 252.758H402.313V246.766H408.641V248.488ZM413.157 254.942L411.519 258.876H410.259L411.169 254.942H413.157ZM414.374 249.482C414.42 248.549 414.747 247.83 415.354 247.326C415.97 246.813 416.777 246.556 417.776 246.556C418.457 246.556 419.04 246.677 419.526 246.92C420.011 247.153 420.375 247.475 420.618 247.886C420.87 248.287 420.996 248.745 420.996 249.258C420.996 249.846 420.842 250.345 420.534 250.756C420.235 251.157 419.876 251.428 419.456 251.568V251.624C419.997 251.792 420.417 252.091 420.716 252.52C421.024 252.949 421.178 253.5 421.178 254.172C421.178 254.732 421.047 255.231 420.786 255.67C420.534 256.109 420.156 256.454 419.652 256.706C419.157 256.949 418.56 257.07 417.86 257.07C416.805 257.07 415.946 256.804 415.284 256.272C414.621 255.74 414.271 254.956 414.234 253.92H416.138C416.156 254.377 416.31 254.746 416.6 255.026C416.898 255.297 417.304 255.432 417.818 255.432C418.294 255.432 418.658 255.301 418.91 255.04C419.171 254.769 419.302 254.424 419.302 254.004C419.302 253.444 419.124 253.043 418.77 252.8C418.415 252.557 417.864 252.436 417.118 252.436H416.712V250.826H417.118C418.443 250.826 419.106 250.383 419.106 249.496C419.106 249.095 418.984 248.782 418.742 248.558C418.508 248.334 418.168 248.222 417.72 248.222C417.281 248.222 416.94 248.343 416.698 248.586C416.464 248.819 416.329 249.118 416.292 249.482H414.374ZM428.466 257L424.91 252.646V257H422.95V247.228H424.91V251.61L428.466 247.228H430.832L426.8 252.072L430.944 257H428.466Z" fill="#092F47"/>
<rect x="141.25" y="302.25" width="225.5" height="0.5" stroke="#092F47" stroke-opacity="0.4" stroke-width="0.5" stroke-dasharray="4 4"/>
<rect x="141.25" y="277.25" width="225.5" height="0.5" stroke="#092F47" stroke-opacity="0.4" stroke-width="0.5" stroke-dasharray="4 4"/>
<rect x="141.25" y="252.25" width="225.5" height="0.5" stroke="#092F47" stroke-opacity="0.4" stroke-width="0.5" stroke-dasharray="4 4"/>
<rect x="141.25" y="227.25" width="225.5" height="0.5" stroke="#092F47" stroke-opacity="0.4" stroke-width="0.5" stroke-dasharray="4 4"/>
<path d="M354 241.5C354 240.119 355.119 239 356.5 239C357.881 239 359 240.119 359 241.5V303H354V241.5Z" fill="#FFC670"/>
<path d="M321 244.5C321 243.119 322.119 242 323.5 242C324.881 242 326 243.119 326 244.5V303H321V244.5Z" fill="#FFC670"/>
<path d="M288 255.5C288 254.119 289.119 253 290.5 253C291.881 253 293 254.119 293 255.5V303H288V255.5Z" fill="#FFC670"/>
<path d="M255 265.5C255 264.119 256.119 263 257.5 263C258.881 263 260 264.119 260 265.5V303H255V265.5Z" fill="#FFC670"/>
<path d="M222 259.5C222 258.119 223.119 257 224.5 257C225.881 257 227 258.119 227 259.5V303H222V259.5Z" fill="#FFC670"/>
<path d="M189 249.5C189 248.119 190.119 247 191.5 247C192.881 247 194 248.119 194 249.5V303H189V249.5Z" fill="#FFC670"/>
<path d="M156 276.5C156 275.119 157.119 274 158.5 274C159.881 274 161 275.119 161 276.5V303H156V276.5Z" fill="#FFC670"/>
<path d="M346 233.5C346 232.119 347.119 231 348.5 231C349.881 231 351 232.119 351 233.5V303H346V233.5Z" fill="#FF7342"/>
<path d="M313 240.5C313 239.119 314.119 238 315.5 238C316.881 238 318 239.119 318 240.5V303H313V240.5Z" fill="#FF7342"/>
<path d="M280 249.5C280 248.119 281.119 247 282.5 247C283.881 247 285 248.119 285 249.5V303H280V249.5Z" fill="#FF7342"/>
<path d="M247 261.5C247 260.119 248.119 259 249.5 259C250.881 259 252 260.119 252 261.5V303H247V261.5Z" fill="#FF7342"/>
<path d="M214 254.5C214 253.119 215.119 252 216.5 252C217.881 252 219 253.119 219 254.5V303H214V254.5Z" fill="#FF7342"/>
<path d="M181 244.5C181 243.119 182.119 242 183.5 242C184.881 242 186 243.119 186 244.5V303H181V244.5Z" fill="#FF7342"/>
<path d="M149 269.5C149 268.119 150.119 267 151.5 267C152.881 267 154 268.119 154 269.5V303H149V269.5Z" fill="#FF7342"/>
<g filter="url(#filter6_d)">
<rect x="495" y="182" width="131" height="154" rx="10" fill="white"/>
</g>
<rect x="506" y="199" width="40" height="3" rx="1.5" fill="black" fill-opacity="0.5"/>
<rect x="587" y="199" width="28" height="3" rx="1.5" fill="#C4C4C4" fill-opacity="0.7"/>
<circle cx="559.803" cy="273.197" r="39.803" fill="#FF7342" stroke="#FF7342" stroke-width="6"/>
<mask id="path-50-outside-1" maskUnits="userSpaceOnUse" x="517" y="230.394" width="78" height="86" fill="black">
<rect fill="white" x="517" y="230.394" width="78" height="86"/>
<path d="M559.803 241.394C559.803 238.633 557.554 236.359 554.818 236.733C550.175 237.368 545.68 238.886 541.581 241.221C536.03 244.385 531.397 248.94 528.14 254.437C524.883 259.935 523.113 266.186 523.005 272.575C522.897 278.964 524.455 285.271 527.524 290.875C530.593 296.48 535.069 301.188 540.511 304.538C545.952 307.888 552.172 309.763 558.559 309.979C564.945 310.195 571.277 308.745 576.933 305.77C581.108 303.575 584.808 300.605 587.843 297.034C589.632 294.93 588.927 291.811 586.6 290.324L562.11 274.672C560.673 273.753 559.803 272.165 559.803 270.459V241.394Z"/>
</mask>
<path d="M559.803 241.394C559.803 238.633 557.554 236.359 554.818 236.733C550.175 237.368 545.68 238.886 541.581 241.221C536.03 244.385 531.397 248.94 528.14 254.437C524.883 259.935 523.113 266.186 523.005 272.575C522.897 278.964 524.455 285.271 527.524 290.875C530.593 296.48 535.069 301.188 540.511 304.538C545.952 307.888 552.172 309.763 558.559 309.979C564.945 310.195 571.277 308.745 576.933 305.77C581.108 303.575 584.808 300.605 587.843 297.034C589.632 294.93 588.927 291.811 586.6 290.324L562.11 274.672C560.673 273.753 559.803 272.165 559.803 270.459V241.394Z" fill="white"/>
<path d="M559.803 241.394C559.803 238.633 557.554 236.359 554.818 236.733C550.175 237.368 545.68 238.886 541.581 241.221C536.03 244.385 531.397 248.94 528.14 254.437C524.883 259.935 523.113 266.186 523.005 272.575C522.897 278.964 524.455 285.271 527.524 290.875C530.593 296.48 535.069 301.188 540.511 304.538C545.952 307.888 552.172 309.763 558.559 309.979C564.945 310.195 571.277 308.745 576.933 305.77C581.108 303.575 584.808 300.605 587.843 297.034C589.632 294.93 588.927 291.811 586.6 290.324L562.11 274.672C560.673 273.753 559.803 272.165 559.803 270.459V241.394Z" stroke="#FF7342" stroke-width="12" mask="url(#path-50-outside-1)"/>
<path d="M586.094 290.126L595.561 295.807L592.72 300.541C591.152 303.155 587.761 304.003 585.146 302.434C582.532 300.865 581.684 297.474 583.253 294.86L586.094 290.126Z" fill="white"/>
<path d="M559.951 229.182L559.768 240.222L554.248 240.131C551.2 240.08 548.77 237.568 548.82 234.52C548.87 231.471 551.382 229.041 554.431 229.091L559.951 229.182Z" fill="white"/>
<g filter="url(#filter7_d)">
<rect x="120" y="359" width="208" height="98" rx="10" fill="white"/>
</g>
<path d="M128 445L151 423H189L211 406L231 390L263 406L280 432L301 423L317 406" stroke="#808080" stroke-opacity="0.6" stroke-width="3"/>
<path d="M152 428.5C149.461 428.5 147.5 426.204 147.5 423.5C147.5 420.796 149.461 418.5 152 418.5C154.539 418.5 156.5 420.796 156.5 423.5C156.5 426.204 154.539 428.5 152 428.5Z" fill="#C4C4C4" stroke="white"/>
<circle r="4.5" transform="matrix(-1 0 0 1 186 423)" fill="#C4C4C4" stroke="white"/>
<circle r="4.5" transform="matrix(-1 0 0 1 232 391)" fill="#C4C4C4" stroke="white"/>
<circle r="4.5" transform="matrix(-1 0 0 1 263 407)" fill="#C4C4C4" stroke="white"/>
<circle r="4.5" transform="matrix(-1 0 0 1 281 428)" fill="#C4C4C4" stroke="white"/>
<circle r="4.5" transform="matrix(-1 0 0 1 301 423)" fill="#C4C4C4" stroke="white"/>
<circle r="4.5" transform="matrix(-1 0 0 1 317 404)" fill="#C4C4C4" stroke="white"/>
<rect x="131" y="371" width="33" height="3" rx="1.5" fill="black" fill-opacity="0.6"/>
<rect x="285" y="372" width="30" height="3" rx="1.5" fill="#C4C4C4" fill-opacity="0.7"/>
<g filter="url(#filter8_d)">
<rect x="346" y="359" width="170" height="98" rx="10" fill="white"/>
</g>
<circle cx="369" cy="389" r="12" fill="#C4C4C4" fill-opacity="0.5"/>
<circle cx="369" cy="429" r="12" fill="#C4C4C4" fill-opacity="0.5"/>
<rect x="388" y="382" width="57" height="3" rx="1.5" fill="#C4C4C4"/>
<rect x="388" y="422" width="57" height="3" rx="1.5" fill="#C4C4C4"/>
<rect x="388" y="391" width="32" height="3" rx="1.5" fill="#C4C4C4"/>
<rect x="388" y="431" width="32" height="3" rx="1.5" fill="#C4C4C4"/>
<rect x="489" y="387" width="16" height="3" rx="1.5" fill="#C4C4C4"/>
<rect x="489" y="427" width="16" height="3" rx="1.5" fill="#C4C4C4"/>
<g filter="url(#filter9_d)">
<rect width="129" height="154" rx="10" fill="white"/>
</g>
<path d="M26.512 127.44V133H25.6V127.44H26.512ZM33.0454 128.52C33.392 128.52 33.7014 128.592 33.9734 128.736C34.2507 128.88 34.4667 129.093 34.6214 129.376C34.7814 129.659 34.8614 130 34.8614 130.4V133H33.9574V130.536C33.9574 130.141 33.8587 129.84 33.6614 129.632C33.464 129.419 33.1947 129.312 32.8534 129.312C32.512 129.312 32.24 129.419 32.0374 129.632C31.84 129.84 31.7414 130.141 31.7414 130.536V133H30.8374V130.536C30.8374 130.141 30.7387 129.84 30.5414 129.632C30.344 129.419 30.0747 129.312 29.7334 129.312C29.392 129.312 29.12 129.419 28.9174 129.632C28.72 129.84 28.6214 130.141 28.6214 130.536V133H27.7094V128.592H28.6214V129.096C28.7707 128.915 28.96 128.773 29.1894 128.672C29.4187 128.571 29.664 128.52 29.9254 128.52C30.2774 128.52 30.592 128.595 30.8694 128.744C31.1467 128.893 31.36 129.109 31.5094 129.392C31.6427 129.125 31.8507 128.915 32.1334 128.76C32.416 128.6 32.72 128.52 33.0454 128.52ZM35.7179 130.776C35.7179 130.333 35.8085 129.941 35.9899 129.6C36.1765 129.259 36.4272 128.995 36.7419 128.808C37.0619 128.616 37.4139 128.52 37.7979 128.52C38.1445 128.52 38.4459 128.589 38.7019 128.728C38.9632 128.861 39.1712 129.029 39.3259 129.232V128.592H40.2459V133H39.3259V132.344C39.1712 132.552 38.9605 132.725 38.6939 132.864C38.4272 133.003 38.1232 133.072 37.7819 133.072C37.4032 133.072 37.0565 132.976 36.7419 132.784C36.4272 132.587 36.1765 132.315 35.9899 131.968C35.8085 131.616 35.7179 131.219 35.7179 130.776ZM39.3259 130.792C39.3259 130.488 39.2619 130.224 39.1339 130C39.0112 129.776 38.8485 129.605 38.6459 129.488C38.4432 129.371 38.2245 129.312 37.9899 129.312C37.7552 129.312 37.5365 129.371 37.3339 129.488C37.1312 129.6 36.9659 129.768 36.8379 129.992C36.7152 130.211 36.6539 130.472 36.6539 130.776C36.6539 131.08 36.7152 131.347 36.8379 131.576C36.9659 131.805 37.1312 131.981 37.3339 132.104C37.5419 132.221 37.7605 132.28 37.9899 132.28C38.2245 132.28 38.4432 132.221 38.6459 132.104C38.8485 131.987 39.0112 131.816 39.1339 131.592C39.2619 131.363 39.3259 131.096 39.3259 130.792ZM43.2198 128.52C43.5611 128.52 43.8624 128.589 44.1238 128.728C44.3904 128.861 44.5984 129.029 44.7478 129.232V128.592H45.6678V133.072C45.6678 133.477 45.5824 133.837 45.4118 134.152C45.2411 134.472 44.9931 134.723 44.6678 134.904C44.3478 135.085 43.9638 135.176 43.5158 135.176C42.9184 135.176 42.4224 135.035 42.0278 134.752C41.6331 134.475 41.4091 134.096 41.3558 133.616H42.2598C42.3291 133.845 42.4758 134.029 42.6998 134.168C42.9291 134.312 43.2011 134.384 43.5158 134.384C43.8838 134.384 44.1798 134.272 44.4038 134.048C44.6331 133.824 44.7478 133.499 44.7478 133.072V132.336C44.5931 132.544 44.3824 132.72 44.1158 132.864C43.8544 133.003 43.5558 133.072 43.2198 133.072C42.8358 133.072 42.4838 132.976 42.1638 132.784C41.8491 132.587 41.5984 132.315 41.4118 131.968C41.2304 131.616 41.1398 131.219 41.1398 130.776C41.1398 130.333 41.2304 129.941 41.4118 129.6C41.5984 129.259 41.8491 128.995 42.1638 128.808C42.4838 128.616 42.8358 128.52 43.2198 128.52ZM44.7478 130.792C44.7478 130.488 44.6838 130.224 44.5558 130C44.4331 129.776 44.2704 129.605 44.0678 129.488C43.8651 129.371 43.6464 129.312 43.4118 129.312C43.1771 129.312 42.9584 129.371 42.7558 129.488C42.5531 129.6 42.3878 129.768 42.2598 129.992C42.1371 130.211 42.0758 130.472 42.0758 130.776C42.0758 131.08 42.1371 131.347 42.2598 131.576C42.3878 131.805 42.5531 131.981 42.7558 132.104C42.9638 132.221 43.1824 132.28 43.4118 132.28C43.6464 132.28 43.8651 132.221 44.0678 132.104C44.2704 131.987 44.4331 131.816 44.5558 131.592C44.6838 131.363 44.7478 131.096 44.7478 130.792ZM50.9056 130.688C50.9056 130.853 50.895 131.003 50.8736 131.136H47.5056C47.5323 131.488 47.663 131.771 47.8976 131.984C48.1323 132.197 48.4203 132.304 48.7616 132.304C49.2523 132.304 49.599 132.099 49.8016 131.688H50.7856C50.6523 132.093 50.4096 132.427 50.0576 132.688C49.711 132.944 49.279 133.072 48.7616 133.072C48.3403 133.072 47.9616 132.979 47.6256 132.792C47.295 132.6 47.0336 132.333 46.8416 131.992C46.655 131.645 46.5616 131.245 46.5616 130.792C46.5616 130.339 46.6523 129.941 46.8336 129.6C47.0203 129.253 47.279 128.987 47.6096 128.8C47.9456 128.613 48.3296 128.52 48.7616 128.52C49.1776 128.52 49.5483 128.611 49.8736 128.792C50.199 128.973 50.4523 129.229 50.6336 129.56C50.815 129.885 50.9056 130.261 50.9056 130.688ZM49.9536 130.4C49.9483 130.064 49.8283 129.795 49.5936 129.592C49.359 129.389 49.0683 129.288 48.7216 129.288C48.407 129.288 48.1376 129.389 47.9136 129.592C47.6896 129.789 47.5563 130.059 47.5136 130.4H49.9536ZM53.4031 133.072C53.0565 133.072 52.7445 133.011 52.4671 132.888C52.1951 132.76 51.9791 132.589 51.8191 132.376C51.6591 132.157 51.5738 131.915 51.5631 131.648H52.5071C52.5231 131.835 52.6111 131.992 52.7711 132.12C52.9365 132.243 53.1418 132.304 53.3871 132.304C53.6431 132.304 53.8405 132.256 53.9791 132.16C54.1231 132.059 54.1951 131.931 54.1951 131.776C54.1951 131.611 54.1151 131.488 53.9551 131.408C53.8005 131.328 53.5525 131.24 53.2111 131.144C52.8805 131.053 52.6111 130.965 52.4031 130.88C52.1951 130.795 52.0138 130.664 51.8591 130.488C51.7098 130.312 51.6351 130.08 51.6351 129.792C51.6351 129.557 51.7045 129.344 51.8431 129.152C51.9818 128.955 52.1791 128.8 52.4351 128.688C52.6965 128.576 52.9951 128.52 53.3311 128.52C53.8325 128.52 54.2351 128.648 54.5391 128.904C54.8485 129.155 55.0138 129.499 55.0351 129.936H54.1231C54.1071 129.739 54.0271 129.581 53.8831 129.464C53.7391 129.347 53.5445 129.288 53.2991 129.288C53.0591 129.288 52.8751 129.333 52.7471 129.424C52.6191 129.515 52.5551 129.635 52.5551 129.784C52.5551 129.901 52.5978 130 52.6831 130.08C52.7685 130.16 52.8725 130.224 52.9951 130.272C53.1178 130.315 53.2991 130.371 53.5391 130.44C53.8591 130.525 54.1205 130.613 54.3231 130.704C54.5311 130.789 54.7098 130.917 54.8591 131.088C55.0085 131.259 55.0858 131.485 55.0911 131.768C55.0911 132.019 55.0218 132.243 54.8831 132.44C54.7445 132.637 54.5471 132.792 54.2911 132.904C54.0405 133.016 53.7445 133.072 53.4031 133.072Z" fill="#092F47"/>
<path d="M87.392 127.44L85.304 133H84.248L82.152 127.44H83.128L84.776 132.064L86.432 127.44H87.392ZM88.6187 128.008C88.4534 128.008 88.3147 127.952 88.2027 127.84C88.0907 127.728 88.0347 127.589 88.0347 127.424C88.0347 127.259 88.0907 127.12 88.2027 127.008C88.3147 126.896 88.4534 126.84 88.6187 126.84C88.7787 126.84 88.9147 126.896 89.0267 127.008C89.1387 127.12 89.1947 127.259 89.1947 127.424C89.1947 127.589 89.1387 127.728 89.0267 127.84C88.9147 127.952 88.7787 128.008 88.6187 128.008ZM89.0667 128.592V133H88.1547V128.592H89.0667ZM89.9601 130.776C89.9601 130.333 90.0507 129.941 90.2321 129.6C90.4187 129.259 90.6694 128.995 90.9841 128.808C91.3041 128.616 91.6587 128.52 92.0481 128.52C92.3361 128.52 92.6187 128.584 92.8961 128.712C93.1787 128.835 93.4027 129 93.5681 129.208V127.08H94.4881V133H93.5681V132.336C93.4187 132.549 93.2107 132.725 92.9441 132.864C92.6827 133.003 92.3814 133.072 92.0401 133.072C91.6561 133.072 91.3041 132.976 90.9841 132.784C90.6694 132.587 90.4187 132.315 90.2321 131.968C90.0507 131.616 89.9601 131.219 89.9601 130.776ZM93.5681 130.792C93.5681 130.488 93.5041 130.224 93.3761 130C93.2534 129.776 93.0907 129.605 92.8881 129.488C92.6854 129.371 92.4667 129.312 92.2321 129.312C91.9974 129.312 91.7787 129.371 91.5761 129.488C91.3734 129.6 91.2081 129.768 91.0801 129.992C90.9574 130.211 90.8961 130.472 90.8961 130.776C90.8961 131.08 90.9574 131.347 91.0801 131.576C91.2081 131.805 91.3734 131.981 91.5761 132.104C91.7841 132.221 92.0027 132.28 92.2321 132.28C92.4667 132.28 92.6854 132.221 92.8881 132.104C93.0907 131.987 93.2534 131.816 93.3761 131.592C93.5041 131.363 93.5681 131.096 93.5681 130.792ZM99.7259 130.688C99.7259 130.853 99.7153 131.003 99.6939 131.136H96.3259C96.3526 131.488 96.4833 131.771 96.7179 131.984C96.9526 132.197 97.2406 132.304 97.5819 132.304C98.0726 132.304 98.4193 132.099 98.6219 131.688H99.6059C99.4726 132.093 99.2299 132.427 98.8779 132.688C98.5313 132.944 98.0993 133.072 97.5819 133.072C97.1606 133.072 96.7819 132.979 96.4459 132.792C96.1153 132.6 95.8539 132.333 95.6619 131.992C95.4753 131.645 95.3819 131.245 95.3819 130.792C95.3819 130.339 95.4726 129.941 95.6539 129.6C95.8406 129.253 96.0993 128.987 96.4299 128.8C96.7659 128.613 97.1499 128.52 97.5819 128.52C97.9979 128.52 98.3686 128.611 98.6939 128.792C99.0193 128.973 99.2726 129.229 99.4539 129.56C99.6353 129.885 99.7259 130.261 99.7259 130.688ZM98.7739 130.4C98.7686 130.064 98.6486 129.795 98.4139 129.592C98.1793 129.389 97.8886 129.288 97.5419 129.288C97.2273 129.288 96.9579 129.389 96.7339 129.592C96.5099 129.789 96.3766 130.059 96.3339 130.4H98.7739ZM102.535 133.072C102.119 133.072 101.743 132.979 101.407 132.792C101.071 132.6 100.807 132.333 100.615 131.992C100.423 131.645 100.327 131.245 100.327 130.792C100.327 130.344 100.426 129.947 100.623 129.6C100.821 129.253 101.09 128.987 101.431 128.8C101.773 128.613 102.154 128.52 102.575 128.52C102.997 128.52 103.378 128.613 103.719 128.8C104.061 128.987 104.33 129.253 104.527 129.6C104.725 129.947 104.823 130.344 104.823 130.792C104.823 131.24 104.722 131.637 104.519 131.984C104.317 132.331 104.039 132.6 103.687 132.792C103.341 132.979 102.957 133.072 102.535 133.072ZM102.535 132.28C102.77 132.28 102.989 132.224 103.191 132.112C103.399 132 103.567 131.832 103.695 131.608C103.823 131.384 103.887 131.112 103.887 130.792C103.887 130.472 103.826 130.203 103.703 129.984C103.581 129.76 103.418 129.592 103.215 129.48C103.013 129.368 102.794 129.312 102.559 129.312C102.325 129.312 102.106 129.368 101.903 129.48C101.706 129.592 101.549 129.76 101.431 129.984C101.314 130.203 101.255 130.472 101.255 130.792C101.255 131.267 101.375 131.635 101.615 131.896C101.861 132.152 102.167 132.28 102.535 132.28ZM107.325 133.072C106.978 133.072 106.666 133.011 106.389 132.888C106.117 132.76 105.901 132.589 105.741 132.376C105.581 132.157 105.496 131.915 105.485 131.648H106.429C106.445 131.835 106.533 131.992 106.693 132.12C106.858 132.243 107.064 132.304 107.309 132.304C107.565 132.304 107.762 132.256 107.901 132.16C108.045 132.059 108.117 131.931 108.117 131.776C108.117 131.611 108.037 131.488 107.877 131.408C107.722 131.328 107.474 131.24 107.133 131.144C106.802 131.053 106.533 130.965 106.325 130.88C106.117 130.795 105.936 130.664 105.781 130.488C105.632 130.312 105.557 130.08 105.557 129.792C105.557 129.557 105.626 129.344 105.765 129.152C105.904 128.955 106.101 128.8 106.357 128.688C106.618 128.576 106.917 128.52 107.253 128.52C107.754 128.52 108.157 128.648 108.461 128.904C108.77 129.155 108.936 129.499 108.957 129.936H108.045C108.029 129.739 107.949 129.581 107.805 129.464C107.661 129.347 107.466 129.288 107.221 129.288C106.981 129.288 106.797 129.333 106.669 129.424C106.541 129.515 106.477 129.635 106.477 129.784C106.477 129.901 106.52 130 106.605 130.08C106.69 130.16 106.794 130.224 106.917 130.272C107.04 130.315 107.221 130.371 107.461 130.44C107.781 130.525 108.042 130.613 108.245 130.704C108.453 130.789 108.632 130.917 108.781 131.088C108.93 131.259 109.008 131.485 109.013 131.768C109.013 132.019 108.944 132.243 108.805 132.44C108.666 132.637 108.469 132.792 108.213 132.904C107.962 133.016 107.666 133.072 107.325 133.072Z" fill="#092F47"/>
<circle cx="64" cy="78" r="26.5" stroke="#FF7342" stroke-width="5"/>
<path d="M59.4112 81.92L54.418 79.1536C54.3003 79.0752 54.2054 78.9672 54.1427 78.8405C54.08 78.7137 54.0517 78.5727 54.0608 78.4316C54.064 78.291 54.1062 78.154 54.1827 78.0359C54.2592 77.9178 54.367 77.8233 54.494 77.7628L72.0576 69.0608C72.1827 69.0149 72.3201 69.0149 72.4452 69.0608L59.396 81.9732L59.4112 81.92ZM59.32 83.1132V87.468C59.3208 87.5454 59.3451 87.6207 59.3898 87.6838C59.4345 87.7469 59.4974 87.7949 59.5701 87.8214C59.6428 87.8478 59.7219 87.8514 59.7967 87.8318C59.8715 87.8121 59.9385 87.77 59.9888 87.7112L63.0288 84.0024L66.768 86.1C66.8655 86.1644 66.9766 86.2055 67.0926 86.22C67.2086 86.2345 67.3264 86.2221 67.4368 86.1836C67.5529 86.1443 67.6578 86.0774 67.7425 85.9887C67.8272 85.9001 67.8892 85.7922 67.9232 85.6744L72.8632 69.76C72.8674 69.7196 72.8674 69.6788 72.8632 69.6384L59.32 83.1132Z" fill="#092F47"/>
<path d="M36.415 22.68C36.415 23.21 36.29 23.71 36.04 24.18C35.79 24.65 35.39 25.035 34.84 25.335C34.29 25.625 33.585 25.77 32.725 25.77H30.835V30H29.125V19.575H32.725C33.525 19.575 34.2 19.715 34.75 19.995C35.31 20.265 35.725 20.635 35.995 21.105C36.275 21.575 36.415 22.1 36.415 22.68ZM32.725 24.375C33.375 24.375 33.86 24.23 34.18 23.94C34.5 23.64 34.66 23.22 34.66 22.68C34.66 21.54 34.015 20.97 32.725 20.97H30.835V24.375H32.725ZM41.6309 30.135C40.8509 30.135 40.1459 29.96 39.5159 29.61C38.8859 29.25 38.3909 28.75 38.0309 28.11C37.6709 27.46 37.4909 26.71 37.4909 25.86C37.4909 25.02 37.6759 24.275 38.0459 23.625C38.4159 22.975 38.9209 22.475 39.5609 22.125C40.2009 21.775 40.9159 21.6 41.7059 21.6C42.4959 21.6 43.2109 21.775 43.8509 22.125C44.4909 22.475 44.9959 22.975 45.3659 23.625C45.7359 24.275 45.9209 25.02 45.9209 25.86C45.9209 26.7 45.7309 27.445 45.3509 28.095C44.9709 28.745 44.4509 29.25 43.7909 29.61C43.1409 29.96 42.4209 30.135 41.6309 30.135ZM41.6309 28.65C42.0709 28.65 42.4809 28.545 42.8609 28.335C43.2509 28.125 43.5659 27.81 43.8059 27.39C44.0459 26.97 44.1659 26.46 44.1659 25.86C44.1659 25.26 44.0509 24.755 43.8209 24.345C43.5909 23.925 43.2859 23.61 42.9059 23.4C42.5259 23.19 42.1159 23.085 41.6759 23.085C41.2359 23.085 40.8259 23.19 40.4459 23.4C40.0759 23.61 39.7809 23.925 39.5609 24.345C39.3409 24.755 39.2309 25.26 39.2309 25.86C39.2309 26.75 39.4559 27.44 39.9059 27.93C40.3659 28.41 40.9409 28.65 41.6309 28.65ZM50.6113 30.135C49.9613 30.135 49.3763 30.02 48.8563 29.79C48.3463 29.55 47.9413 29.23 47.6413 28.83C47.3413 28.42 47.1813 27.965 47.1613 27.465H48.9313C48.9613 27.815 49.1263 28.11 49.4263 28.35C49.7363 28.58 50.1213 28.695 50.5813 28.695C51.0613 28.695 51.4313 28.605 51.6913 28.425C51.9613 28.235 52.0963 27.995 52.0963 27.705C52.0963 27.395 51.9463 27.165 51.6463 27.015C51.3563 26.865 50.8913 26.7 50.2513 26.52C49.6313 26.35 49.1263 26.185 48.7363 26.025C48.3463 25.865 48.0063 25.62 47.7163 25.29C47.4363 24.96 47.2963 24.525 47.2963 23.985C47.2963 23.545 47.4263 23.145 47.6863 22.785C47.9463 22.415 48.3163 22.125 48.7963 21.915C49.2863 21.705 49.8463 21.6 50.4763 21.6C51.4163 21.6 52.1713 21.84 52.7413 22.32C53.3213 22.79 53.6313 23.435 53.6713 24.255H51.9613C51.9313 23.885 51.7813 23.59 51.5113 23.37C51.2413 23.15 50.8763 23.04 50.4163 23.04C49.9663 23.04 49.6213 23.125 49.3813 23.295C49.1413 23.465 49.0213 23.69 49.0213 23.97C49.0213 24.19 49.1013 24.375 49.2613 24.525C49.4213 24.675 49.6163 24.795 49.8463 24.885C50.0763 24.965 50.4163 25.07 50.8663 25.2C51.4663 25.36 51.9563 25.525 52.3363 25.695C52.7263 25.855 53.0613 26.095 53.3413 26.415C53.6213 26.735 53.7663 27.16 53.7763 27.69C53.7763 28.16 53.6463 28.58 53.3863 28.95C53.1263 29.32 52.7563 29.61 52.2763 29.82C51.8063 30.03 51.2513 30.135 50.6113 30.135ZM57.619 23.13V27.705C57.619 28.015 57.689 28.24 57.829 28.38C57.979 28.51 58.229 28.575 58.579 28.575H59.629V30H58.279C57.509 30 56.919 29.82 56.509 29.46C56.099 29.1 55.894 28.515 55.894 27.705V23.13H54.919V21.735H55.894V19.68H57.619V21.735H59.629V23.13H57.619ZM71.8366 19.575V20.97H69.0616V30H67.3516V20.97H64.5616V19.575H71.8366ZM81.0084 21.735L75.9384 33.885H74.1684L75.8484 29.865L72.5934 21.735H74.4984L76.8234 28.035L79.2384 21.735H81.0084ZM84.0088 22.95C84.2988 22.57 84.6938 22.25 85.1938 21.99C85.6938 21.73 86.2588 21.6 86.8888 21.6C87.6088 21.6 88.2638 21.78 88.8538 22.14C89.4538 22.49 89.9238 22.985 90.2638 23.625C90.6038 24.265 90.7738 25 90.7738 25.83C90.7738 26.66 90.6038 27.405 90.2638 28.065C89.9238 28.715 89.4538 29.225 88.8538 29.595C88.2638 29.955 87.6088 30.135 86.8888 30.135C86.2588 30.135 85.6988 30.01 85.2088 29.76C84.7188 29.5 84.3188 29.18 84.0088 28.8V33.93H82.2988V21.735H84.0088V22.95ZM89.0338 25.83C89.0338 25.26 88.9138 24.77 88.6738 24.36C88.4438 23.94 88.1338 23.625 87.7438 23.415C87.3638 23.195 86.9538 23.085 86.5138 23.085C86.0838 23.085 85.6738 23.195 85.2838 23.415C84.9038 23.635 84.5938 23.955 84.3538 24.375C84.1238 24.795 84.0088 25.29 84.0088 25.86C84.0088 26.43 84.1238 26.93 84.3538 27.36C84.5938 27.78 84.9038 28.1 85.2838 28.32C85.6738 28.54 86.0838 28.65 86.5138 28.65C86.9538 28.65 87.3638 28.54 87.7438 28.32C88.1338 28.09 88.4438 27.76 88.6738 27.33C88.9138 26.9 89.0338 26.4 89.0338 25.83ZM100.04 25.665C100.04 25.975 100.02 26.255 99.9798 26.505H93.6648C93.7148 27.165 93.9598 27.695 94.3998 28.095C94.8398 28.495 95.3798 28.695 96.0198 28.695C96.9398 28.695 97.5898 28.31 97.9698 27.54H99.8148C99.5648 28.3 99.1098 28.925 98.4498 29.415C97.7998 29.895 96.9898 30.135 96.0198 30.135C95.2298 30.135 94.5198 29.96 93.8898 29.61C93.2698 29.25 92.7798 28.75 92.4198 28.11C92.0698 27.46 91.8948 26.71 91.8948 25.86C91.8948 25.01 92.0648 24.265 92.4048 23.625C92.7548 22.975 93.2398 22.475 93.8598 22.125C94.4898 21.775 95.2098 21.6 96.0198 21.6C96.7998 21.6 97.4948 21.77 98.1048 22.11C98.7148 22.45 99.1898 22.93 99.5298 23.55C99.8698 24.16 100.04 24.865 100.04 25.665ZM98.2548 25.125C98.2448 24.495 98.0198 23.99 97.5798 23.61C97.1398 23.23 96.5948 23.04 95.9448 23.04C95.3548 23.04 94.8498 23.23 94.4298 23.61C94.0098 23.98 93.7598 24.485 93.6798 25.125H98.2548Z" fill="#092F47"/>
<circle cx="17" cy="130" r="3" fill="#092F47"/>
<circle cx="74" cy="130" r="3" fill="#092F47"/>
<g filter="url(#filter10_d)">
<rect x="538" y="359" width="129" height="98" rx="10" fill="white"/>
</g>
<rect x="549" y="372" width="21" height="3" rx="1.5" fill="#C4C4C4"/>
<rect x="549" y="380" width="58" height="3" rx="1.5" fill="#C4C4C4"/>
<path d="M546.015 438.348C556.89 454.837 563.075 453.233 564.569 433.538C565.837 411.171 572.021 409.567 583.122 428.728C594.66 447.775 600.845 446.172 601.675 423.918C603.266 408.878 609.451 407.275 620.229 419.108C629.966 431.211 636.151 429.607 638.782 414.298C641.207 392.508 647.391 390.905 657.335 409.488" stroke="black" stroke-opacity="0.4" stroke-width="2"/>
<defs>
<filter id="filter0_d" x="40" y="9" width="657" height="507" filterUnits="userSpaceOnUse" color-interpolation-filters="sRGB">
<feFlood flood-opacity="0" result="BackgroundImageFix"/>
<feColorMatrix in="SourceAlpha" type="matrix" values="0 0 0 0 0 0 0 0 0 0 0 0 0 0 0 0 0 0 127 0"/>
<feOffset dy="4"/>
<feGaussianBlur stdDeviation="15"/>
<feColorMatrix type="matrix" values="0 0 0 0 0 0 0 0 0 0 0 0 0 0 0 0 0 0 0.05 0"/>
<feBlend mode="normal" in2="BackgroundImageFix" result="effect1_dropShadow"/>
<feBlend mode="normal" in="SourceGraphic" in2="effect1_dropShadow" result="shape"/>
</filter>
<filter id="filter1_d" x="223" y="75" width="168" height="99" filterUnits="userSpaceOnUse" color-interpolation-filters="sRGB">
<feFlood flood-opacity="0" result="BackgroundImageFix"/>
<feColorMatrix in="SourceAlpha" type="matrix" values="0 0 0 0 0 0 0 0 0 0 0 0 0 0 0 0 0 0 127 0"/>
<feOffset/>
<feGaussianBlur stdDeviation="10"/>
<feColorMatrix type="matrix" values="0 0 0 0 0 0 0 0 0 0 0 0 0 0 0 0 0 0 0.1 0"/>
<feBlend mode="normal" in2="BackgroundImageFix" result="effect1_dropShadow"/>
<feBlend mode="normal" in="SourceGraphic" in2="effect1_dropShadow" result="shape"/>
</filter>
<filter id="filter2_d" x="363" y="75" width="168" height="99" filterUnits="userSpaceOnUse" color-interpolation-filters="sRGB">
<feFlood flood-opacity="0" result="BackgroundImageFix"/>
<feColorMatrix in="SourceAlpha" type="matrix" values="0 0 0 0 0 0 0 0 0 0 0 0 0 0 0 0 0 0 127 0"/>
<feOffset/>
<feGaussianBlur stdDeviation="10"/>
<feColorMatrix type="matrix" values="0 0 0 0 0 0 0 0 0 0 0 0 0 0 0 0 0 0 0.1 0"/>
<feBlend mode="normal" in2="BackgroundImageFix" result="effect1_dropShadow"/>
<feBlend mode="normal" in="SourceGraphic" in2="effect1_dropShadow" result="shape"/>
</filter>
<filter id="filter3_d" x="530" y="40" width="188" height="119" filterUnits="userSpaceOnUse" color-interpolation-filters="sRGB">
<feFlood flood-opacity="0" result="BackgroundImageFix"/>
<feColorMatrix in="SourceAlpha" type="matrix" values="0 0 0 0 0 0 0 0 0 0 0 0 0 0 0 0 0 0 127 0"/>
<feOffset/>
<feGaussianBlur stdDeviation="15"/>
<feColorMatrix type="matrix" values="0 0 0 0 0 0 0 0 0 0 0 0 0 0 0 0 0 0 0.12 0"/>
<feBlend mode="normal" in2="BackgroundImageFix" result="effect1_dropShadow"/>
<feBlend mode="normal" in="SourceGraphic" in2="effect1_dropShadow" result="shape"/>
</filter>
<filter id="filter4_d" x="83" y="75" width="168" height="99" filterUnits="userSpaceOnUse" color-interpolation-filters="sRGB">
<feFlood flood-opacity="0" result="BackgroundImageFix"/>
<feColorMatrix in="SourceAlpha" type="matrix" values="0 0 0 0 0 0 0 0 0 0 0 0 0 0 0 0 0 0 127 0"/>
<feOffset/>
<feGaussianBlur stdDeviation="10"/>
<feColorMatrix type="matrix" values="0 0 0 0 0 0 0 0 0 0 0 0 0 0 0 0 0 0 0.1 0"/>
<feBlend mode="normal" in2="BackgroundImageFix" result="effect1_dropShadow"/>
<feBlend mode="normal" in="SourceGraphic" in2="effect1_dropShadow" result="shape"/>
</filter>
<filter id="filter5_d" x="67" y="132" width="445" height="254" filterUnits="userSpaceOnUse" color-interpolation-filters="sRGB">
<feFlood flood-opacity="0" result="BackgroundImageFix"/>
<feColorMatrix in="SourceAlpha" type="matrix" values="0 0 0 0 0 0 0 0 0 0 0 0 0 0 0 0 0 0 127 0"/>
<feOffset/>
<feGaussianBlur stdDeviation="25"/>
<feColorMatrix type="matrix" values="0 0 0 0 0 0 0 0 0 0 0 0 0 0 0 0 0 0 0.1 0"/>
<feBlend mode="normal" in2="BackgroundImageFix" result="effect1_dropShadow"/>
<feBlend mode="normal" in="SourceGraphic" in2="effect1_dropShadow" result="shape"/>
</filter>
<filter id="filter6_d" x="465" y="156" width="191" height="214" filterUnits="userSpaceOnUse" color-interpolation-filters="sRGB">
<feFlood flood-opacity="0" result="BackgroundImageFix"/>
<feColorMatrix in="SourceAlpha" type="matrix" values="0 0 0 0 0 0 0 0 0 0 0 0 0 0 0 0 0 0 127 0"/>
<feOffset dy="4"/>
<feGaussianBlur stdDeviation="15"/>
<feColorMatrix type="matrix" values="0 0 0 0 0 0 0 0 0 0 0 0 0 0 0 0 0 0 0.12 0"/>
<feBlend mode="normal" in2="BackgroundImageFix" result="effect1_dropShadow"/>
<feBlend mode="normal" in="SourceGraphic" in2="effect1_dropShadow" result="shape"/>
</filter>
<filter id="filter7_d" x="80" y="323" width="288" height="178" filterUnits="userSpaceOnUse" color-interpolation-filters="sRGB">
<feFlood flood-opacity="0" result="BackgroundImageFix"/>
<feColorMatrix in="SourceAlpha" type="matrix" values="0 0 0 0 0 0 0 0 0 0 0 0 0 0 0 0 0 0 127 0"/>
<feOffset dy="4"/>
<feGaussianBlur stdDeviation="20"/>
<feColorMatrix type="matrix" values="0 0 0 0 0 0 0 0 0 0 0 0 0 0 0 0 0 0 0.12 0"/>
<feBlend mode="normal" in2="BackgroundImageFix" result="effect1_dropShadow"/>
<feBlend mode="normal" in="SourceGraphic" in2="effect1_dropShadow" result="shape"/>
</filter>
<filter id="filter8_d" x="316" y="333" width="230" height="158" filterUnits="userSpaceOnUse" color-interpolation-filters="sRGB">
<feFlood flood-opacity="0" result="BackgroundImageFix"/>
<feColorMatrix in="SourceAlpha" type="matrix" values="0 0 0 0 0 0 0 0 0 0 0 0 0 0 0 0 0 0 127 0"/>
<feOffset dy="4"/>
<feGaussianBlur stdDeviation="15"/>
<feColorMatrix type="matrix" values="0 0 0 0 0 0 0 0 0 0 0 0 0 0 0 0 0 0 0.12 0"/>
<feBlend mode="normal" in2="BackgroundImageFix" result="effect1_dropShadow"/>
<feBlend mode="normal" in="SourceGraphic" in2="effect1_dropShadow" result="shape"/>
</filter>
<filter id="filter9_d" x="-20" y="-20" width="169" height="194" filterUnits="userSpaceOnUse" color-interpolation-filters="sRGB">
<feFlood flood-opacity="0" result="BackgroundImageFix"/>
<feColorMatrix in="SourceAlpha" type="matrix" values="0 0 0 0 0 0 0 0 0 0 0 0 0 0 0 0 0 0 127 0"/>
<feOffset/>
<feGaussianBlur stdDeviation="10"/>
<feColorMatrix type="matrix" values="0 0 0 0 0 0 0 0 0 0 0 0 0 0 0 0 0 0 0.12 0"/>
<feBlend mode="normal" in2="BackgroundImageFix" result="effect1_dropShadow"/>
<feBlend mode="normal" in="SourceGraphic" in2="effect1_dropShadow" result="shape"/>
</filter>
<filter id="filter10_d" x="518" y="343" width="169" height="138" filterUnits="userSpaceOnUse" color-interpolation-filters="sRGB">
<feFlood flood-opacity="0" result="BackgroundImageFix"/>
<feColorMatrix in="SourceAlpha" type="matrix" values="0 0 0 0 0 0 0 0 0 0 0 0 0 0 0 0 0 0 127 0"/>
<feOffset dy="4"/>
<feGaussianBlur stdDeviation="10"/>
<feColorMatrix type="matrix" values="0 0 0 0 0 0 0 0 0 0 0 0 0 0 0 0 0 0 0.12 0"/>
<feBlend mode="normal" in2="BackgroundImageFix" result="effect1_dropShadow"/>
<feBlend mode="normal" in="SourceGraphic" in2="effect1_dropShadow" result="shape"/>
</filter>
</defs>
</svg>
