<svg width="19" height="19" viewBox="0 0 19 19" fill="none" xmlns="http://www.w3.org/2000/svg">
<path d="M18.3173 7.42976C18.2821 7.2817 18.1336 7.19026 17.985 7.22547C17.8369 7.26088 17.7455 7.4095 17.7809 7.55756C17.9259 8.16569 17.9996 8.80791 17.9996 9.46659C17.9996 14.1715 14.0861 17.9992 9.27555 17.9992C4.46501 17.9992 0.551523 14.1715 0.551523 9.46659C0.551523 4.76132 4.46501 0.933414 9.27555 0.933414C11.1914 0.933414 13.0215 1.53965 14.5677 2.68663C14.6897 2.77731 14.8627 2.75176 14.9534 2.62945C15.0441 2.50714 15.0185 2.33447 14.8962 2.24378C13.2544 1.02562 11.3107 0.38208 9.27555 0.38208C4.16094 0.38208 0 4.45725 0 9.46659C0 14.4756 4.16094 18.5507 9.27555 18.5507C14.3902 18.5507 18.5511 14.4756 18.5511 9.46659C18.5511 8.76512 18.4723 8.07993 18.3173 7.42976Z" fill="#FF7342"/>
<path d="M9.08414 13.5717C9.01106 13.5717 8.94101 13.5428 8.88913 13.4911L3.71791 8.32063C3.61018 8.2129 3.61018 8.03834 3.71791 7.93061C3.82545 7.82288 4.00002 7.82288 4.10775 7.93061L9.07259 12.8947L18.4517 2.38944C18.5532 2.27584 18.7274 2.266 18.841 2.36748C18.9546 2.46896 18.9644 2.64314 18.8631 2.75674L9.28975 13.4797C9.2392 13.5363 9.16764 13.5697 9.0919 13.5717C9.08925 13.5717 9.08679 13.5717 9.08414 13.5717Z" fill="#FF7342"/>
</svg>
