<svg width="24" height="24" viewBox="0 0 24 24" fill="none" xmlns="http://www.w3.org/2000/svg">
<path d="M15.75 0H8.25C6.975 0 6 0.975 6 2.25V21.75C6 23.025 6.975 24 8.25 24H15.75C17.025 24 18 23.025 18 21.75V2.25C18 0.975 17.025 0 15.75 0ZM12 5.25C12.45 5.25 12.75 5.625 12.75 6C12.75 6.375 12.375 6.75 12 6.75C11.625 6.75 11.25 6.375 11.25 6C11.25 5.625 11.55 5.25 12 5.25ZM12 7.5C12.45 7.5 12.75 7.875 12.75 8.25C12.75 8.625 12.375 9 12 9C11.625 9 11.25 8.625 11.25 8.25C11.25 7.875 11.55 7.5 12 7.5ZM12 9.75C12.45 9.75 12.75 10.125 12.75 10.5C12.75 10.875 12.375 11.25 12 11.25C11.625 11.25 11.25 10.875 11.25 10.5C11.25 10.125 11.55 9.75 12 9.75ZM12.75 15.75V16.5C12.75 16.95 12.45 17.25 12 17.25C11.55 17.25 11.25 16.95 11.25 16.5V15.75C11.25 15.3 11.55 15 12 15C12.45 15 12.75 15.3 12.75 15.75ZM11.25 12.75C11.25 13.2 10.95 13.5 10.5 13.5H9.75C9.3 13.5 9 13.2 9 12.75C9 12.3 9.3 12 9.75 12H10.5C10.95 12 11.25 12.3 11.25 12.75ZM9.75 3C10.2 3 10.5 3.375 10.5 3.75C10.5 4.125 10.125 4.5 9.75 4.5C9.375 4.5 9 4.125 9 3.75C9 3.375 9.3 3 9.75 3ZM9.75 5.25C10.2 5.25 10.5 5.625 10.5 6C10.5 6.375 10.125 6.75 9.75 6.75C9.375 6.75 9 6.375 9 6C9 5.625 9.3 5.25 9.75 5.25ZM9.75 7.5C10.2 7.5 10.5 7.875 10.5 8.25C10.5 8.625 10.125 9 9.75 9C9.375 9 9 8.625 9 8.25C9 7.875 9.3 7.5 9.75 7.5ZM9.75 9.75C10.2 9.75 10.5 10.125 10.5 10.5C10.5 10.875 10.125 11.25 9.75 11.25C9.375 11.25 9 10.875 9 10.5C9 10.125 9.3 9.75 9.75 9.75ZM10.5 18.75H9.75C9.3 18.75 9 18.45 9 18C9 17.55 9.3 17.25 9.75 17.25H10.5C10.95 17.25 11.25 17.55 11.25 18C11.25 18.45 10.95 18.75 10.5 18.75ZM12.75 20.25C12.75 20.7 12.45 21 12 21C11.55 21 11.25 20.7 11.25 20.25V19.5C11.25 19.05 11.55 18.75 12 18.75C12.45 18.75 12.75 19.05 12.75 19.5V20.25ZM14.25 18.75H13.5C13.05 18.75 12.75 18.45 12.75 18C12.75 17.55 13.05 17.25 13.5 17.25H14.25C14.7 17.25 15 17.55 15 18C15 18.45 14.7 18.75 14.25 18.75ZM14.25 13.5H13.5C13.05 13.5 12.75 13.2 12.75 12.75C12.75 12.3 13.05 12 13.5 12H14.25C14.7 12 15 12.3 15 12.75C15 13.2 14.7 13.5 14.25 13.5ZM14.25 11.25C13.8 11.25 13.5 10.875 13.5 10.5C13.5 10.125 13.875 9.75 14.25 9.75C14.625 9.75 15 10.125 15 10.5C15 10.875 14.7 11.25 14.25 11.25ZM14.25 9C13.8 9 13.5 8.625 13.5 8.25C13.5 7.875 13.875 7.5 14.25 7.5C14.625 7.5 15 7.875 15 8.25C15 8.625 14.7 9 14.25 9ZM14.25 6.75C13.8 6.75 13.5 6.375 13.5 6C13.5 5.625 13.875 5.25 14.25 5.25C14.625 5.25 15 5.625 15 6C15 6.375 14.7 6.75 14.25 6.75Z" fill="white"/>
</svg>
